<svg id="Layer_1" data-name="Layer 1" xmlns="http://www.w3.org/2000/svg" viewBox="0 0 486.81 487.69"><defs><style>.cls-1{fill:#fff;}.cls-2{fill:#3c235a;}</style></defs><title>Untitled-1</title><ellipse class="cls-1" cx="243.4" cy="243.85" rx="243.4" ry="243.85"/><circle class="cls-2" cx="243.75" cy="243.95" r="223.53"/><path class="cls-1" d="M191.6,207.49c-5,3.54-10,7-14.86,10.67a5.5,5.5,0,0,1-5.72.92q-31.5-10.37-63.1-20.46a5,5,0,0,1-3.68-3.67q-11.67-37.2-23.64-74.31a4.73,4.73,0,0,1,1-5,220.78,220.78,0,0,1,54.24-47.82,216.36,216.36,0,0,1,40.43-19.61,3.42,3.42,0,0,1,3.67.64Q211.45,72.06,243,95.21a4,4,0,0,1,1.83,3.63q-.09,34.13,0,68.27a3.86,3.86,0,0,1-1.89,3.58c-10.81,7.67-21.57,15.41-32.34,23.14-2.29,1.65-4.58,3.31-6.86,5" transform="translate(-6.74 -8.31)"/><path class="cls-1" d="M309.9,207.49c5,3.54,10,7,14.86,10.67a5.5,5.5,0,0,0,5.72.92q31.5-10.37,63.1-20.46a5,5,0,0,0,3.68-3.67q11.67-37.2,23.64-74.31a4.73,4.73,0,0,0-1-5,220.78,220.78,0,0,0-54.24-47.82,216.36,216.36,0,0,0-40.43-19.61,3.42,3.42,0,0,0-3.67.64Q290,72.06,258.49,95.21a4,4,0,0,0-1.83,3.63q.09,34.13,0,68.27a3.86,3.86,0,0,0,1.89,3.58c10.81,7.67,21.57,15.41,32.34,23.14,2.29,1.65,4.58,3.31,6.86,5" transform="translate(-6.74 -8.31)"/><path class="cls-1" d="M310.57,293.52c-1.87,5.81-3.63,11.65-5.64,17.4a5.5,5.5,0,0,0,.87,5.73q19.47,26.85,38.69,53.88a5,5,0,0,0,4.61,2.39q39-.2,78-.1a4.73,4.73,0,0,0,4.49-2.49,220.78,220.78,0,0,0,29-66.22A216.36,216.36,0,0,0,467,259.64a3.42,3.42,0,0,0-1.73-3.3q-31.72-22.93-63.38-45.94a4,4,0,0,0-4-.64q-32.49,10.47-65,20.77a3.86,3.86,0,0,0-2.84,2.89c-4,12.63-8.12,25.23-12.2,37.84-.87,2.69-1.76,5.37-2.65,8" transform="translate(-6.74 -8.31)"/><path class="cls-1" d="M190.4,294.45c1.8,5.83,3.5,11.69,5.44,17.47a5.5,5.5,0,0,1-.94,5.72q-19.78,26.62-39.32,53.43a5,5,0,0,1-4.64,2.33q-39-.66-78-1a4.73,4.73,0,0,1-4.46-2.55,220.78,220.78,0,0,1-28.26-66.55,216.36,216.36,0,0,1-5.86-44.55,3.42,3.42,0,0,1,1.77-3.28q32-22.55,63.92-45.2a4,4,0,0,1,4-.6q32.36,10.85,64.78,21.53a3.86,3.86,0,0,1,2.8,2.92c3.86,12.68,7.82,25.33,11.75,38,.84,2.7,1.7,5.39,2.55,8.08" transform="translate(-6.74 -8.31)"/><path class="cls-1" d="M228.28,323.62c-6.1,0-12.2.16-18.3,0a5.5,5.5,0,0,0-5.18,2.6q-19.49,26.84-39.23,53.49a5,5,0,0,0-.84,5.13Q177,421.88,189,459a4.73,4.73,0,0,0,3.76,3.5,220.78,220.78,0,0,0,72,7.08A216.36,216.36,0,0,0,309,461.82a3.42,3.42,0,0,0,2.61-2.67q12-37.27,24-74.5a4,4,0,0,0-.63-4Q315,353,295.08,325.24a3.86,3.86,0,0,0-3.63-1.8c-13.25.1-26.51.11-39.76.14-2.82,0-5.65,0-8.47,0" transform="translate(-6.74 -8.31)"/></svg>