<svg>
	
<style>.cls-1{opacity:0.78;}.cls-2{fill:#3d235a;stroke:#fff;stroke-miterlimit:10;stroke-width:6px;}</style>
	

	<g id="Layer_14" data-name="Layer 14" class="cls-1">
		<polygon class="cls-2" points="232.42 19.67 231.04 3 129.12 3 127.74 19.67 232.42 19.67"/>
		<path class="cls-2" d="M216.34,49.45h-75C142.32,77.64,216.22,77.26,216.34,49.45Z"/>
		<path class="cls-2" d="M248.58,225.87h105L308.68,3h-53l3.85,46.45H216.34c-.12,27.81-74,28.19-75,0H96.46L100.3,3H48.61L3.67,225.87H107.89C125.08,178.57,231.4,178.52,248.58,225.87Z"/>
		<path class="cls-2" d="M96.46,225.87H252.58"/>
		<path class="cls-2" d="M141.31,49.45c0-.19,0-.39,0-.58,0,.2,0,.39,0,.58h75s0,0,0-.07,0,0,0,.07h43.17L255.66,3H231l1.38,16.67H127.74L129.12,3H100.3L96.46,49.45Z"/>
	
</g></svg>