<?xml version="1.0" encoding="utf-8"?>
<!-- Generator: Adobe Illustrator 21.0.0, SVG Export Plug-In . SVG Version: 6.00 Build 0)  -->
<svg version="1.1" xmlns="http://www.w3.org/2000/svg" xmlns:xlink="http://www.w3.org/1999/xlink" x="0px" y="0px"
	 viewBox="0 0 500 500" style="enable-background:new 0 0 500 500;" xml:space="preserve">
<style type="text/css">
	.st0{display:none;}
	.st1{display:inline;fill:#FFFFFF;}
	.st2{fill:#3C235A;}
	.st3{display:inline;fill:#3C235A;}
	.st4{fill:#FFFFFF;}
	.st5{font-family:'Futura-Bold';}
	.st6{font-size:70.9222px;}
	.st7{letter-spacing:-3.1;}
	.st8{font-size:58.1178px;}
	.st9{fill:#3C245B;}
	.st10{fill:#3C245A;}
	.st11{font-size:27.2988px;}
	.st12{letter-spacing:-1.1;}
	.st13{font-family:'Futura-Medium';}
	.st14{font-size:28.5099px;}
	.st15{letter-spacing:-0.9;}
</style>
<g id="Layer_1" class="st0">
	<ellipse class="st1" cx="250" cy="250" rx="243.4" ry="243.8"/>
	<circle class="st2" cx="250.5" cy="252.3" r="223.5"/>
	<circle class="st3" cx="250.6" cy="250.3" r="222.9"/>
</g>
<g id="Layer_7">
	<text transform="matrix(0.9588 6.903053e-04 -7.299979e-04 1 196.5656 245.3916)"><tspan x="0" y="0" class="st4 st5 st6 st7"> </tspan><tspan x="20.1" y="0" class="st4 st5 st8 st7">Fan</tspan><tspan x="0" y="53.1" class="st4 st5 st8 st7">Site</tspan></text>
</g>
<g id="logo">
	<path class="st4" d="M191.5,205.3c-5,3.5-10,7-14.9,10.7c-1.9,1.4-3.4,1.7-5.7,0.9c-21-6.9-42-13.7-63.1-20.5c-2-0.6-3-1.6-3.7-3.7
		c-7.8-24.8-15.7-49.6-23.6-74.3c-0.6-2-0.3-3.4,1-5c15.4-18.9,33.6-34.9,54.2-47.8c12.7-8,26.3-14.4,40.4-19.6
		c1.5-0.6,2.5-0.2,3.7,0.6c21,15.5,42,31,63.1,46.4c1.3,1,1.8,2,1.8,3.6c-0.1,22.8-0.1,45.5,0,68.3c0,1.7-0.6,2.6-1.9,3.6
		c-10.8,7.7-21.6,15.4-32.3,23.1c-2.3,1.6-4.6,3.3-6.9,5"/>
	<g>
		<path class="st9" d="M136.9,82.6c3.4,1.4,6.3,3.4,9.2,5.7c-0.6-3.9-1.2-7.7-1.9-11.7c1.6,1,2.9,2,4.3,2.9c2.5,1.7,5.1,3.4,7.6,5.1
			c0.6,0.4,0.9,0.5,1.1-0.4c1.2-3.5,2.4-7.1,3.7-10.6c0.1-0.2,0.2-0.5,0.3-0.8c0.5,0.8,1,1.6,1.5,2.3c1.7,2.6,3.4,5.2,5,7.8
			c0.5,0.8,0.8,0.7,1.4,0.1c2.8-3.1,5.7-6.2,8.6-9.3c0.3-0.3,0.5-0.6,0.7-0.9c0.1,0,0.2,0.1,0.3,0.1c0.3,3.8,0.5,7.6,0.8,11.6
			c2.2-2.8,4.6-5.2,7.2-7.3c0.2,0.2,0.1,0.4,0.1,0.5c-1.6,3.7-2.4,7.5-2.8,11.5c-0.1,0.8-0.2,1.1-1.2,0.9
			c-13.5-3.3-26.4-1.8-38.7,4.6c-0.7,0.4-0.9,0.3-1.2-0.5c-1.2-3.5-2.7-6.9-4.9-10C137.8,83.7,137.4,83.3,136.9,82.6z"/>
		<path class="st10" d="M212,141.4c-1.5-8.2-5.1-15.4-10-22.2c-0.4,0.9-0.2,1.9-0.6,2.7c-1.3-1.4-2.6-2.7-3.8-4
			c0.5-0.6,1.5-0.8,1.4-1.8c-0.2-1.3-0.6-2.6-1.8-3.1c-1-0.4-2,0.5-2.8,1.2c-0.1,0.1-0.2,0.1-0.2,0.2c-0.3,0.5-0.6,0.4-1,0.1
			c-1.2-0.9-2.4-1.7-4-2.1c0.4,0.5,0.8,0.9,1.1,1.4c1.5,2.7,3.7,4.9,6.2,6.7c0.2,0.2,0.4,0.4,0.7,0.6c0.7,0.7,1.5,1.3,2.1,2.2
			c-0.2,0.1-0.3,0.1-0.4,0c-4-1.3-7.9-1.2-11.9,0.2c-0.6,0.2-0.9-0.1-1.2-0.4c-1.9-2.1-3.9-4.2-6.1-6.1c-0.4-0.4-0.6-0.8-0.6-1.3
			c-0.1-1.5,0.7-2.6,1.6-3.8c-1.6,0.1-2.9,0.7-4,1.6c-0.4,0.4-0.7,0.4-1.2,0c-1.9-1.3-4.1-2.2-6.3-3c-0.5-0.2-1-0.3-1.5-0.1
			c-2.8,0.6-5.2,1.9-7.4,3.9c1.7,1.1,3.3,2,5.1,2.5c2.1,0.6,4.3,0.3,6.5,0.4c1.4,0.1,2.6,0.5,3.6,1.4c2,1.9,4,3.7,5.8,5.8
			c0.1,0.2,0.4,0.3,0.3,0.6c-0.6-0.2-1.1-0.4-1.7-0.5c-2.3-0.5-4.7-0.6-7-0.6c-2.6,0.1-5.3,0.3-7.9-0.1c-3.3-0.5-8.1-3.4-8.5-8
			c-0.1-0.6-0.3-0.7-0.8-0.8c-1.1-0.1-2.2-0.3-3.4-0.5c2.2-2.5,4.6-4.3,7.7-5.4c-0.5-0.5-0.9-0.8-1.4-1.2c-1-0.8-1-0.8,0-1.6
			c4-2.9,8.5-4.5,13.3-5.3c1-0.2,1.8,0,2.6,0.4c3,1.5,5.8,3.2,8.4,5.2c0.7,0.5,1,0.4,1.3-0.3c0.6-1.3,0.8-2.7,1.1-4.2
			c5.1,2.4,9.5,5.6,13.6,9.3c0.1-0.4-0.1-0.6-0.2-0.9c-1.1-2.6-2.2-5.2-2.5-8.1c0-0.5-0.4-0.8-0.7-1.1c-2.4-2.1-5.1-3.6-8-4.8
			c-2.2-0.9-4.4-1.6-6.8-2.1c0.7,1.7,1.2,3.4,1.2,5.3c-0.4-0.4-0.6-0.6-0.9-0.9c-1.7-1.8-3.5-3.5-5.7-4.8c-0.5-0.3-1-0.6-1.6-0.6
			c-7-0.6-13.9,0.3-20.6,2.4c-2.4,0.8-4.7,1.7-7,2.9c3.4,0.6,6.2,3,6.7,5.6c-0.9-0.7-1.9-1.2-2.9-1.5c-4.7-1.5-8.4,1.1-8.7,6
			c-0.1,2.6,0.6,5.1,1.7,7.5c-1.2-0.5-2.1-1.3-2.8-2.3c-2.4-3.4-2.4-7-1.3-10.8c-6.7,4.8-11.9,10.8-15.7,18.2
			c1.9,0.3,3.6,0.6,5.5,0.9c-3.1,3.6-5.3,7.6-7.1,11.8c-1.8,4.3-3.2,8.6-3.4,13.3c3-0.9,5.8-1.8,8.8-2.6c-0.1,0.4-0.2,0.8-0.2,1.1
			c-0.1,0.4-0.2,0.7-0.2,1.1c-0.8,5.7-0.7,11.5,0,17.2c0.5,3.4,1.2,6.7,2.7,9.8c1,2.1,1,2.1,2.7,0.6c3.1-2.6,5.8-5.5,8.3-8.6
			c1.7-2.1,3.2-4.2,4.8-6.5c1.3,4,1.9,7.9,2,11.9c0.1,5.2-0.8,10.3-1.8,15.3c-0.1,0.7,0,0.9,0.6,1.3c2.1,1.1,4.4,1.9,6.7,2.6
			c1.1,0.3,2.3,0.3,3.3,0.9c3.9,0,7.7,0,11.6,0c0.7-0.4,1.6-0.4,2.4-0.6c5.6-1.2,10.7-3.3,15.5-6.6c0.5,2,1,3.9,1.5,5.8
			c0.1,0.6,0.3,0.7,0.8,0.4c7.1-4.8,12.5-10.9,15.6-19c1.3-3.3,2-6.8,2.5-10.5c1.5,1.6,2.8,3,4.2,4.5
			C212.5,157.5,213.5,149.6,212,141.4z M175.9,143c-1.3-2.4-2.6-4.8-3.9-7.2c-0.2-0.4-0.4-0.7,0.1-1.1c3.8-2.8,7.8-5.3,12.4-6.6
			c1-0.3,1.7-0.3,2.6,0.4c1.4,1.1,3,1.8,4.6,2.5c0.5,0.2,0.7,0.4,0.7,0.9c0,0.9,0,1.8,0,3.1c0.8,2.2-0.7,3.6-2.6,4.9
			c-2.4,1.7-4.8,3.4-7.5,4.5c-0.4,0.2-0.9,0.3-1.3,0.5C177.8,145.9,177.5,145.8,175.9,143z M197.9,153.5c-1.3,2.6-2.8,5-5.5,6.8
			c0.1-2.6-0.2-5-0.9-7.4c-2.1,1.9-4.5,3-7,3.8c-0.7,0.2-1.1,0.2-1.4-0.6c-0.8-1.7-1.8-3.3-2.6-4.9c-0.2-0.3-0.5-0.6,0.2-0.7
			c2.5-0.4,4.7-1.7,6.8-3.1c0.4-0.3,0.9-0.5,1.2-0.8c2-2.2,4.5-2.1,7.1-2c0.4,0,0.6,0.1,0.8,0.4c0.2,0.2,0.3,0.5,0.5,0.7
			C198.9,148.1,199.3,150.6,197.9,153.5z M201.9,143.5c-0.1,0.3-0.2,0.5-0.4,0.8c0,0.1-0.1,0.1-0.3,0.2c-1-2.3-2.6-4.1-4.3-5.8
			c-0.5-0.5-0.7-0.9-0.7-1.6c0.1-1.7,0-3.3,0-5c0-0.5,0.2-0.8,0.6-1.1c1.2-0.8,2.4-1.6,3.6-2.5c0.4-0.3,0.6-0.4,0.8,0.2
			C203.1,133.5,203.8,138.4,201.9,143.5z"/>
	</g>
</g>
<g id="team">
	<path class="st4" d="M189.3,292.3c1.8,5.8,3.5,11.7,5.5,17.5c0.7,2.2,0.5,3.8-0.9,5.7c-13.2,17.8-26.2,35.6-39.3,53.5
		c-1.2,1.7-2.4,2.4-4.6,2.3c-26-0.4-52-0.7-78-0.9c-2.1,0-3.3-0.8-4.5-2.5c-13.1-20.6-22.5-42.8-28.3-66.5
		c-3.6-14.6-5.4-29.5-5.9-44.5c-0.1-1.6,0.6-2.4,1.8-3.3c21.3-15.1,42.6-30.1,63.9-45.3c1.3-1,2.4-1.1,4-0.6
		c21.6,7.2,43.2,14.4,64.8,21.5c1.6,0.5,2.3,1.4,2.8,2.9c3.9,12.7,7.9,25.3,11.8,38c0.8,2.7,1.7,5.4,2.6,8.1"/>
	<text transform="matrix(0.8966 4.572951e-03 -5.099983e-03 1 49.5534 279.7928)" class="st2 st5 st11 st12">Teams</text>
</g>
<g id="table">
	<path class="st4" d="M272.2,321.4c6.1,0,12.2,0.2,18.3,0c2.3,0,3.8,0.7,5.2,2.6c13,17.9,26.1,35.7,39.2,53.5c1.2,1.7,1.5,3,0.8,5.1
		c-8.2,24.7-16.3,49.4-24.3,74.1c-0.7,2-1.7,2.9-3.8,3.5c-23.6,6.3-47.6,8.6-72,7c-15-1-29.8-3.7-44.3-7.8c-1.6-0.4-2.2-1.3-2.6-2.7
		c-7.9-24.9-15.9-49.7-24-74.5c-0.5-1.6-0.3-2.7,0.6-4c13.4-18.4,26.7-36.9,40-55.3c1-1.4,2-1.8,3.6-1.8c13.3,0.1,26.5,0.1,39.8,0.2
		c2.8,0,5.6,0,8.5,0"/>
	<text transform="matrix(0.8966 4.572951e-03 -5.099983e-03 1 243.0466 445.714)" class="st2 st5 st11 st12">Table</text>
</g>
<g id="plname">
	<path class="st4" d="M274.9,180.1c-4.9-3.6-9.8-7.3-14.8-10.8c-1.9-1.3-2.7-2.7-2.7-5.2c0-22.1-0.1-44.2-0.2-66.3
		c0-2.1,0.5-3.4,2.3-4.6c21.1-15.1,42.2-30.3,63.3-45.6c1.7-1.2,3.1-1.4,5.1-0.6c22.8,8.8,43.6,21,62.3,36.6
		c11.5,9.6,21.9,20.5,31.2,32.3c1,1.3,1,2.3,0.5,3.7c-8.2,24.8-16.3,49.6-24.4,74.4c-0.5,1.6-1.3,2.4-2.9,2.9
		c-21.6,7-43.3,14.1-64.9,21.3c-1.6,0.5-2.7,0.3-4-0.7c-10.7-7.9-21.4-15.7-32.1-23.5c-2.3-1.7-4.6-3.3-6.9-5"/>
	<text transform="matrix(1.0673 5.443519e-03 -5.099983e-03 1 302.3947 166.991)"><tspan x="0" y="0" class="st2 st13 st14 st15">Premier</tspan><tspan x="0" y="23.8" class="st2 st13 st14 st15">League</tspan></text>
</g>
<g id="teamweek">
	<path class="st4" d="M324.9,251.5c1.9-5.8,3.9-11.6,5.6-17.4c0.7-2.2,1.8-3.4,4.1-4.1c21-6.9,42-13.9,62.9-21
		c2-0.7,3.4-0.5,5.1,0.8c21,15.4,42,30.6,63.1,45.8c1.7,1.2,2.3,2.5,2.2,4.7c-1.2,24.4-6.4,48-15.3,70.7
		c-5.5,14-12.6,27.2-20.9,39.8c-0.9,1.4-1.9,1.7-3.3,1.7c-26.1,0-52.2,0-78.3,0c-1.7,0-2.6-0.5-3.6-1.8
		c-13.4-18.4-26.9-36.7-40.5-55c-1-1.4-1.1-2.4-0.6-4c4.2-12.6,8.2-25.2,12.3-37.8c0.9-2.7,1.7-5.4,2.6-8.1"/>
	<text transform="matrix(0.8966 4.572951e-03 -5.099983e-03 1 321.1146 303.1454)"><tspan x="0" y="0" class="st2 st5 st11 st12">Team of</tspan><tspan x="0" y="22.8" class="st2 st5 st11 st12">the week</tspan></text>
</g>
</svg>
