<?xml version="1.0" encoding="utf-8"?>
<!-- Generator: Adobe Illustrator 21.0.0, SVG Export Plug-In . SVG Version: 6.00 Build 0)  -->
<svg version="1.1" xmlns="http://www.w3.org/2000/svg" xmlns:xlink="http://www.w3.org/1999/xlink" x="0px" y="0px"
	 viewBox="0 0 500 500" style="enable-background:new 0 0 500 500;" xml:space="preserve">
<style type="text/css">
	.st0{display:none;}
	.st1{display:inline;fill:#FFFFFF;}
	.st2{display:inline;fill:#3C235A;}
	.st3{display:inline;}
	.st4{fill:#FFFFFF;}
	.st5{font-family:'Futura-Bold';}
	.st6{font-size:70.9222px;}
	.st7{letter-spacing:-3.1;}
	.st8{font-size:58.1178px;}
	.st9{fill:#3C235A;}
	.st10{font-size:27.2988px;}
	.st11{letter-spacing:-1.1;}
	.st12{fill:#3C245B;}
	.st13{fill:#3C245A;}
	.st14{font-family:'Futura-Medium';}
	.st15{font-size:28.5099px;}
	.st16{letter-spacing:-0.9;}
</style>
<g id="Layer_1" class="st0">
	<ellipse class="st1" cx="250.1" cy="252.2" rx="243.4" ry="243.8"/>
	<circle class="st2" cx="250.5" cy="252.3" r="223.5"/>
	<text transform="matrix(0.9588 6.903053e-04 -7.299979e-04 1 196.7088 247.546)" class="st3"><tspan x="0" y="0" class="st4 st5 st6 st7"> </tspan><tspan x="20.1" y="0" class="st4 st5 st8 st7">Fan</tspan><tspan x="0" y="53.1" class="st4 st5 st8 st7">Site</tspan></text>
</g>
<g id="team">
	<path class="st4" d="M190.4,294.5c1.8,5.8,3.5,11.7,5.4,17.5c0.7,2.2,0.5,3.8-0.9,5.7c-13.2,17.7-26.3,35.6-39.3,53.4
		c-1.2,1.7-2.4,2.4-4.6,2.3c-26-0.4-52-0.7-78-1c-2.1,0-3.3-0.8-4.5-2.5C55.4,349.2,46,327,40.3,303.3c-3.6-14.6-5.4-29.5-5.9-44.5
		c-0.1-1.6,0.6-2.4,1.8-3.3c21.3-15,42.6-30.1,63.9-45.2c1.3-1,2.4-1.1,4-0.6c21.6,7.2,43.2,14.4,64.8,21.5c1.6,0.5,2.3,1.4,2.8,2.9
		c3.9,12.7,7.8,25.3,11.8,38c0.8,2.7,1.7,5.4,2.6,8.1"/>
	<text transform="matrix(0.8966 4.572951e-03 -5.099983e-03 1 49.6966 281.9472)" class="st9 st5 st10 st11">Teams</text>
</g>
<g id="logo">
	<path class="st4" d="M191.6,207.5c-5,3.5-10,7-14.9,10.7c-1.9,1.4-3.4,1.7-5.7,0.9c-21-6.9-42-13.7-63.1-20.5c-2-0.6-3-1.6-3.7-3.7
		c-7.8-24.8-15.7-49.6-23.6-74.3c-0.6-2-0.3-3.4,1-5c15.4-18.9,33.6-34.9,54.2-47.8c12.7-8,26.3-14.4,40.4-19.6
		c1.5-0.6,2.5-0.2,3.7,0.6c21,15.5,42,31,63.1,46.4c1.3,1,1.8,2,1.8,3.6c-0.1,22.8-0.1,45.5,0,68.3c0,1.7-0.6,2.6-1.9,3.6
		c-10.8,7.7-21.6,15.4-32.3,23.1c-2.3,1.6-4.6,3.3-6.9,5"/>
	<g>
		<path class="st12" d="M137.1,84.8c3.4,1.4,6.3,3.4,9.2,5.7c-0.6-3.9-1.2-7.7-1.9-11.7c1.6,1,2.9,2,4.3,2.9
			c2.5,1.7,5.1,3.4,7.6,5.1c0.6,0.4,0.9,0.5,1.1-0.4c1.2-3.5,2.4-7.1,3.7-10.6c0.1-0.2,0.2-0.5,0.3-0.8c0.5,0.8,1,1.6,1.5,2.3
			c1.7,2.6,3.4,5.2,5,7.8c0.5,0.8,0.8,0.7,1.4,0.1c2.8-3.1,5.7-6.2,8.6-9.3c0.3-0.3,0.5-0.6,0.7-0.9c0.1,0,0.2,0.1,0.3,0.1
			c0.3,3.8,0.5,7.6,0.8,11.6c2.2-2.8,4.6-5.2,7.2-7.3c0.2,0.2,0.1,0.4,0.1,0.5c-1.6,3.7-2.4,7.5-2.8,11.5c-0.1,0.8-0.2,1.1-1.2,0.9
			c-13.5-3.3-26.4-1.8-38.7,4.6c-0.7,0.4-0.9,0.3-1.2-0.5c-1.2-3.5-2.7-6.9-4.9-10C138,85.9,137.6,85.4,137.1,84.8z"/>
		<path class="st13" d="M212.2,143.5c-1.5-8.2-5.1-15.4-10-22.2c-0.4,0.9-0.2,1.9-0.6,2.7c-1.3-1.4-2.6-2.7-3.8-4
			c0.5-0.6,1.5-0.8,1.4-1.8c-0.2-1.3-0.6-2.6-1.8-3.1c-1-0.4-2,0.5-2.8,1.2c-0.1,0.1-0.2,0.1-0.2,0.2c-0.3,0.5-0.6,0.4-1,0.1
			c-1.2-0.9-2.4-1.7-4-2.1c0.4,0.5,0.8,0.9,1.1,1.4c1.5,2.7,3.7,4.9,6.2,6.7c0.2,0.2,0.4,0.4,0.7,0.6c0.7,0.7,1.5,1.3,2.1,2.2
			c-0.2,0.1-0.3,0.1-0.4,0c-4-1.3-7.9-1.2-11.9,0.2c-0.6,0.2-0.9-0.1-1.2-0.4c-1.9-2.1-3.9-4.2-6.1-6.1c-0.4-0.4-0.6-0.8-0.6-1.3
			c-0.1-1.5,0.7-2.6,1.6-3.8c-1.6,0.1-2.9,0.7-4,1.6c-0.4,0.4-0.7,0.4-1.2,0c-1.9-1.3-4.1-2.2-6.3-3c-0.5-0.2-1-0.3-1.5-0.1
			c-2.8,0.6-5.2,1.9-7.4,3.9c1.7,1.1,3.3,2,5.1,2.5c2.1,0.6,4.3,0.3,6.5,0.4c1.4,0.1,2.6,0.5,3.6,1.4c2,1.9,4,3.7,5.8,5.8
			c0.1,0.2,0.4,0.3,0.3,0.6c-0.6-0.2-1.1-0.4-1.7-0.5c-2.3-0.5-4.7-0.6-7-0.6c-2.6,0.1-5.3,0.3-7.9-0.1c-3.3-0.5-8.1-3.4-8.5-8
			c-0.1-0.6-0.3-0.7-0.8-0.8c-1.1-0.1-2.2-0.3-3.4-0.5c2.2-2.5,4.6-4.3,7.7-5.4c-0.5-0.5-0.9-0.8-1.4-1.2c-1-0.8-1-0.8,0-1.6
			c4-2.9,8.5-4.5,13.3-5.3c1-0.2,1.8,0,2.6,0.4c3,1.5,5.8,3.2,8.4,5.2c0.7,0.5,1,0.4,1.3-0.3c0.6-1.3,0.8-2.7,1.1-4.2
			c5.1,2.4,9.5,5.6,13.6,9.3c0.1-0.4-0.1-0.6-0.2-0.9c-1.1-2.6-2.2-5.2-2.5-8.1c0-0.5-0.4-0.8-0.7-1.1c-2.4-2.1-5.1-3.6-8-4.8
			c-2.2-0.9-4.4-1.6-6.8-2.1c0.7,1.7,1.2,3.4,1.2,5.3c-0.4-0.4-0.6-0.6-0.9-0.9c-1.7-1.8-3.5-3.5-5.7-4.8c-0.5-0.3-1-0.6-1.6-0.6
			c-7-0.6-13.9,0.3-20.6,2.4c-2.4,0.8-4.7,1.7-7,2.9c3.4,0.6,6.2,3,6.7,5.6c-0.9-0.7-1.9-1.2-2.9-1.5c-4.7-1.5-8.4,1.1-8.7,6
			c-0.1,2.6,0.6,5.1,1.7,7.5c-1.2-0.5-2.1-1.3-2.8-2.3c-2.4-3.4-2.4-7-1.3-10.8c-6.7,4.8-11.9,10.8-15.7,18.2
			c1.9,0.3,3.6,0.6,5.5,0.9c-3.1,3.6-5.3,7.6-7.1,11.8c-1.8,4.3-3.2,8.6-3.4,13.3c3-0.9,5.8-1.8,8.8-2.6c-0.1,0.4-0.2,0.8-0.2,1.1
			c-0.1,0.4-0.2,0.7-0.2,1.1c-0.8,5.7-0.7,11.5,0,17.2c0.5,3.4,1.2,6.7,2.7,9.8c1,2.1,1,2.1,2.7,0.6c3.1-2.6,5.8-5.5,8.3-8.6
			c1.7-2.1,3.2-4.2,4.8-6.5c1.3,4,1.9,7.9,2,11.9c0.1,5.2-0.8,10.3-1.8,15.3c-0.1,0.7,0,0.9,0.6,1.3c2.1,1.1,4.4,1.9,6.7,2.6
			c1.1,0.3,2.3,0.3,3.3,0.9c3.9,0,7.7,0,11.6,0c0.7-0.4,1.6-0.4,2.4-0.6c5.6-1.2,10.7-3.3,15.5-6.6c0.5,2,1,3.9,1.5,5.8
			c0.1,0.6,0.3,0.7,0.8,0.4c7.1-4.8,12.5-10.9,15.6-19c1.3-3.3,2-6.8,2.5-10.5c1.5,1.6,2.8,3,4.2,4.5
			C212.6,159.7,213.6,151.7,212.2,143.5z M176.1,145.1c-1.3-2.4-2.6-4.8-3.9-7.2c-0.2-0.4-0.4-0.7,0.1-1.1c3.8-2.8,7.8-5.3,12.4-6.6
			c1-0.3,1.7-0.3,2.6,0.4c1.4,1.1,3,1.8,4.6,2.5c0.5,0.2,0.7,0.4,0.7,0.9c0,0.9,0,1.8,0,3.1c0.8,2.2-0.7,3.6-2.6,4.9
			c-2.4,1.7-4.8,3.4-7.5,4.5c-0.4,0.2-0.9,0.3-1.3,0.5C177.9,148.1,177.6,148,176.1,145.1z M198,155.6c-1.3,2.6-2.8,5-5.5,6.8
			c0.1-2.6-0.2-5-0.9-7.4c-2.1,1.9-4.5,3-7,3.8c-0.7,0.2-1.1,0.2-1.4-0.6c-0.8-1.7-1.8-3.3-2.6-4.9c-0.2-0.3-0.5-0.6,0.2-0.7
			c2.5-0.4,4.7-1.7,6.8-3.1c0.4-0.3,0.9-0.5,1.2-0.8c2-2.2,4.5-2.1,7.1-2c0.4,0,0.6,0.1,0.8,0.4c0.2,0.2,0.3,0.5,0.5,0.7
			C199,150.2,199.4,152.8,198,155.6z M202,145.6c-0.1,0.3-0.2,0.5-0.4,0.8c0,0.1-0.1,0.1-0.3,0.2c-1-2.3-2.6-4.1-4.3-5.8
			c-0.5-0.5-0.7-0.9-0.7-1.6c0.1-1.7,0-3.3,0-5c0-0.5,0.2-0.8,0.6-1.1c1.2-0.8,2.4-1.6,3.6-2.5c0.4-0.3,0.6-0.4,0.8,0.2
			C203.2,135.7,204,140.6,202,145.6z"/>
	</g>
</g>
<g id="table">
	<path class="st4" d="M228.3,323.6c-6.1,0-12.2,0.2-18.3,0c-2.3,0-3.8,0.7-5.2,2.6c-13,17.9-26.1,35.7-39.2,53.5
		c-1.2,1.7-1.5,3-0.8,5.1c8.2,24.7,16.3,49.4,24.3,74.1c0.7,2,1.7,2.9,3.8,3.5c23.6,6.3,47.6,8.7,72,7.1c15-1,29.8-3.7,44.3-7.7
		c1.6-0.4,2.2-1.3,2.6-2.7c8-24.8,16-49.7,24-74.5c0.5-1.6,0.3-2.7-0.6-4c-13.4-18.4-26.7-36.9-39.9-55.4c-1-1.4-2-1.8-3.6-1.8
		c-13.3,0.1-26.5,0.1-39.8,0.1c-2.8,0-5.6,0-8.5,0"/>
	<text transform="matrix(0.8966 4.572951e-03 -5.099983e-03 1 243.1898 447.8683)" class="st9 st5 st10 st11">Table</text>
</g>
<g id="plname">
	<path class="st4" d="M309.9,207.5c5,3.5,10,7,14.9,10.7c1.9,1.4,3.4,1.7,5.7,0.9c21-6.9,42-13.7,63.1-20.5c2-0.6,3-1.6,3.7-3.7
		c7.8-24.8,15.7-49.6,23.6-74.3c0.6-2,0.3-3.4-1-5c-15.4-18.9-33.6-34.9-54.2-47.8c-12.7-8-26.3-14.4-40.4-19.6
		c-1.5-0.6-2.5-0.2-3.7,0.6c-21,15.5-42,31-63.1,46.4c-1.3,1-1.8,2-1.8,3.6c0.1,22.8,0.1,45.5,0,68.3c0,1.7,0.6,2.6,1.9,3.6
		c10.8,7.7,21.6,15.4,32.3,23.1c2.3,1.6,4.6,3.3,6.9,5"/>
	<text transform="matrix(1.0673 5.443519e-03 -5.099983e-03 1 302.5379 169.1454)"><tspan x="0" y="0" class="st9 st14 st15 st16">Premier</tspan><tspan x="0" y="23.8" class="st9 st14 st15 st16">League</tspan></text>
</g>
<g id="teamweek">
	<path class="st4" d="M310.6,293.5c-1.9,5.8-3.6,11.6-5.6,17.4c-0.8,2.2-0.5,3.8,0.9,5.7c13,17.9,25.8,35.9,38.7,53.9
		c1.2,1.7,2.4,2.4,4.6,2.4c26-0.1,52-0.1,78-0.1c2.1,0,3.3-0.7,4.5-2.5c13.3-20.5,23-42.6,29-66.2c3.7-14.6,5.7-29.4,6.4-44.5
		c0.1-1.6-0.5-2.4-1.7-3.3c-21.1-15.3-42.3-30.6-63.4-45.9c-1.3-1-2.4-1.2-4-0.6c-21.7,7-43.3,13.9-65,20.8
		c-1.6,0.5-2.3,1.3-2.8,2.9c-4,12.6-8.1,25.2-12.2,37.8c-0.9,2.7-1.8,5.4-2.6,8"/>
	<text transform="matrix(0.8966 4.572951e-03 -5.099983e-03 1 321.2578 305.2998)"><tspan x="0" y="0" class="st9 st5 st10 st11">Team of</tspan><tspan x="0" y="22.8" class="st9 st5 st10 st11">the week</tspan></text>
</g>
</svg>
