<svg xmlns="http://www.w3.org/2000/svg" viewBox="0 0 500 500"><defs><style>.cls-1{fill:#fff;}.cls-2{fill:#3c245b;}.cls-3{fill:#3c245a;}.cls-10,.cls-4,.cls-6{font-size:27.3px;font-family:Futura-Bold, Futura;font-weight:700;}.cls-10,.cls-4,.cls-6,.cls-8{fill:#3c235a;}.cls-4{letter-spacing:-0.09em;}.cls-5{letter-spacing:-0.06em;}.cls-6{letter-spacing:-0.09em;}.cls-7{letter-spacing:-0.06em;}.cls-8{font-size:28.51px;font-family:Futura-Medium, Futura;letter-spacing:-0.06em;}.cls-9{letter-spacing:-0.06em;}.cls-10{letter-spacing:-0.09em;}.cls-11{letter-spacing:-0.03em;}.cls-12{letter-spacing:-0.08em;}</style></defs><title>buttonshape</title><g id="logo"><path class="cls-1" d="M191.45,205.33c-5,3.54-10,7-14.86,10.67a5.5,5.5,0,0,1-5.72.92q-31.5-10.37-63.1-20.46a5,5,0,0,1-3.68-3.67q-11.67-37.2-23.64-74.31a4.73,4.73,0,0,1,1-5,220.78,220.78,0,0,1,54.24-47.82A216.36,216.36,0,0,1,176.14,46a3.42,3.42,0,0,1,3.67.64q31.49,23.24,63.05,46.4a4,4,0,0,1,1.83,3.63q-.09,34.13,0,68.27a3.86,3.86,0,0,1-1.89,3.58c-10.81,7.67-21.57,15.41-32.34,23.14-2.29,1.65-4.58,3.31-6.86,5"/><path class="cls-2" d="M136.95,82.6a39.78,39.78,0,0,1,9.23,5.65l-1.88-11.72,4.3,2.88c2.53,1.71,5.06,3.4,7.57,5.13.62.42.87.46,1.14-.36,1.18-3.54,2.44-7.05,3.67-10.58.08-.24.18-.47.33-.84l1.51,2.34c1.66,2.6,3.35,5.18,5,7.81.5.82.77.73,1.35.09,2.85-3.11,5.74-6.18,8.6-9.27.27-.29.49-.61.74-.92l.26.12.84,11.62a41.09,41.09,0,0,1,7.25-7.27.39.39,0,0,1,.08.52,38.08,38.08,0,0,0-2.8,11.47c-.08.79-.21,1.09-1.15.86a53.57,53.57,0,0,0-38.65,4.6c-.73.38-.95.32-1.22-.47a41.57,41.57,0,0,0-4.88-10C137.83,83.73,137.45,83.27,136.95,82.6Z"/><path class="cls-3" d="M212,141.36c-1.47-8.18-5.09-15.39-10-22.16-.4.93-.17,1.85-.61,2.73l-3.8-4c.51-.64,1.51-.79,1.36-1.79-.19-1.26-.64-2.61-1.77-3.09s-2,.53-2.85,1.21a1,1,0,0,0-.23.23c-.33.52-.63.37-1,.05a11.07,11.07,0,0,0-4-2.1,11.76,11.76,0,0,1,1.08,1.37,20.69,20.69,0,0,0,6.21,6.71,5.88,5.88,0,0,1,.66.57,13.24,13.24,0,0,1,2.08,2.18.43.43,0,0,1-.45,0,18,18,0,0,0-11.85.19c-.64.23-.85-.07-1.16-.41a78.35,78.35,0,0,0-6.05-6.12,1.7,1.7,0,0,1-.59-1.32c-.06-1.48.72-2.61,1.63-3.84a6.76,6.76,0,0,0-4,1.6.83.83,0,0,1-1.2,0,26.45,26.45,0,0,0-6.27-3,2.75,2.75,0,0,0-1.49-.14,16.07,16.07,0,0,0-7.41,3.88,18.48,18.48,0,0,0,5.12,2.46c2.15.58,4.34.29,6.51.39a5.37,5.37,0,0,1,3.62,1.44c2,1.86,4,3.73,5.8,5.77.14.16.45.29.27.57-.58-.18-1.12-.38-1.67-.51a26.89,26.89,0,0,0-7-.57,46.71,46.71,0,0,1-7.95-.09c-3.29-.45-8.08-3.37-8.52-8-.05-.58-.31-.69-.81-.75-1.09-.12-2.16-.32-3.4-.51A17.57,17.57,0,0,1,160,109l-1.36-1.15c-1-.84-1-.85,0-1.61A31.63,31.63,0,0,1,172,100.9a3.88,3.88,0,0,1,2.59.44A65.44,65.44,0,0,1,183,106.5c.67.48,1,.36,1.26-.34a18.66,18.66,0,0,0,1.06-4.17,53,53,0,0,1,13.59,9.34c.14-.37-.07-.61-.18-.87a26.51,26.51,0,0,1-2.49-8.07,1.61,1.61,0,0,0-.69-1.06,28,28,0,0,0-8-4.84,37.39,37.39,0,0,0-6.8-2.14A13.21,13.21,0,0,1,182,99.64l-.85-.9a26.71,26.71,0,0,0-5.72-4.84,3.66,3.66,0,0,0-1.6-.62,52.65,52.65,0,0,0-20.63,2.43,40.31,40.31,0,0,0-7,2.92c3.36.6,6.23,3,6.67,5.56a8.81,8.81,0,0,0-2.89-1.49c-4.72-1.49-8.4,1.1-8.66,6A16.06,16.06,0,0,0,143,116.2a6.28,6.28,0,0,1-2.78-2.26c-2.37-3.36-2.45-7-1.25-10.82a49.61,49.61,0,0,0-15.65,18.23l5.45.88a44,44,0,0,0-7.09,11.84,39.56,39.56,0,0,0-3.43,13.34l8.76-2.64c-.09.45-.17.79-.23,1.13s-.15.71-.21,1.07a60.67,60.67,0,0,0,0,17.17,34.19,34.19,0,0,0,2.67,9.83c1,2.09,1,2.08,2.68.63a62.9,62.9,0,0,0,8.31-8.62c1.66-2.05,3.18-4.21,4.76-6.48a41,41,0,0,1,2,11.92,69.4,69.4,0,0,1-1.78,15.34.93.93,0,0,0,.58,1.25,37.85,37.85,0,0,0,6.68,2.59,17.48,17.48,0,0,1,3.3.87h11.56a7.14,7.14,0,0,1,2.37-.55,43.23,43.23,0,0,0,15.52-6.62c.53,2,1,3.91,1.52,5.84.14.57.27.73.83.35,7.09-4.77,12.5-10.9,15.57-19A42.56,42.56,0,0,0,205.58,161l4.18,4.5A47.28,47.28,0,0,0,212,141.36ZM175.95,143c-1.3-2.39-2.59-4.78-3.9-7.16-.22-.41-.4-.69.12-1.07,3.82-2.79,7.76-5.34,12.38-6.64a2.63,2.63,0,0,1,2.6.4,17.64,17.64,0,0,0,4.59,2.45.83.83,0,0,1,.66.94c0,.91,0,1.82,0,3.15.78,2.17-.71,3.57-2.63,4.88a42.16,42.16,0,0,1-7.52,4.54c-.43.18-.88.35-1.32.49C177.8,145.94,177.48,145.81,175.95,143Zm21.92,10.47a16,16,0,0,1-5.48,6.77,23.46,23.46,0,0,0-.87-7.35,19.11,19.11,0,0,1-7,3.81c-.7.23-1.09.16-1.45-.56-.83-1.65-1.75-3.26-2.63-4.88-.16-.3-.49-.65.2-.75,2.55-.38,4.66-1.75,6.77-3.09a5.27,5.27,0,0,0,1.16-.81c2-2.19,4.55-2.06,7.13-2a.86.86,0,0,1,.81.41c.16.24.34.47.52.7A6.82,6.82,0,0,1,197.87,153.45Zm4-10c-.1.27-.23.53-.36.79,0,.06-.11.09-.27.23A20.35,20.35,0,0,0,197,138.7a2.05,2.05,0,0,1-.67-1.63c.05-1.67,0-3.34,0-5a1.13,1.13,0,0,1,.62-1.12c1.22-.78,2.4-1.63,3.58-2.48.36-.26.56-.39.76.15C203.08,133.5,203.84,138.43,201.87,143.48Z"/></g><g id="team"><path class="cls-1" d="M189.27,292.33c1.8,5.83,3.51,11.69,5.46,17.46a5.5,5.5,0,0,1-.93,5.72Q174.06,342.16,154.55,369a5,5,0,0,1-4.64,2.34q-39-.61-78-.92a4.73,4.73,0,0,1-4.46-2.54,220.78,220.78,0,0,1-28.35-66.52,216.36,216.36,0,0,1-5.91-44.54A3.42,3.42,0,0,1,35,253.52q32-22.59,63.86-45.28a4,4,0,0,1,4-.6q32.38,10.81,64.81,21.45a3.86,3.86,0,0,1,2.81,2.92c3.88,12.67,7.85,25.32,11.8,38,.84,2.7,1.71,5.38,2.56,8.08"/><text class="cls-4" transform="translate(49.55 279.79) rotate(0.29) scale(0.9 1)">T<tspan class="cls-5" x="12.09" y="0">eams</tspan></text></g><g id="table"><path class="cls-1" d="M272.17,321.45c6.1,0,12.2.17,18.3,0a5.5,5.5,0,0,1,5.17,2.61Q315.1,351,334.82,377.63a5,5,0,0,1,.83,5.13q-12.32,37-24.35,74.08a4.73,4.73,0,0,1-3.77,3.49,220.78,220.78,0,0,1-72,7,216.36,216.36,0,0,1-44.26-7.77,3.42,3.42,0,0,1-2.6-2.67q-11.92-37.28-24-74.53a4,4,0,0,1,.64-4q20.06-27.62,40-55.35a3.86,3.86,0,0,1,3.63-1.8c13.25.11,26.51.13,39.76.18,2.82,0,5.65,0,8.47,0"/><text class="cls-6" transform="translate(243.05 445.71) rotate(0.29) scale(0.9 1)">T<tspan class="cls-7" x="12.07" y="0">able</tspan></text></g><g id="plname"><path class="cls-1" d="M274.93,180.13c-4.91-3.61-9.77-7.31-14.77-10.8a5.5,5.5,0,0,1-2.65-5.15c0-22.11-.08-44.22-.22-66.34a5,5,0,0,1,2.34-4.64q31.71-22.68,63.25-45.61A4.73,4.73,0,0,1,328,47a220.78,220.78,0,0,1,62.33,36.65A216.36,216.36,0,0,1,421.55,116a3.42,3.42,0,0,1,.53,3.69Q409.81,156.81,397.63,194a4,4,0,0,1-2.88,2.87q-32.46,10.55-64.87,21.27a3.86,3.86,0,0,1-4-.68c-10.65-7.89-21.36-15.69-32.06-23.52-2.28-1.67-4.57-3.32-6.86-5"/><text class="cls-8" transform="translate(302.39 166.99) rotate(0.29) scale(1.07 1)">P<tspan class="cls-9" x="13.77" y="0">r</tspan><tspan x="22.61" y="0">emier</tspan><tspan x="0" y="23.78">League</tspan></text></g><g id="teamweek"><path class="cls-1" d="M324.89,251.51c1.9-5.8,3.89-11.57,5.64-17.41a5.5,5.5,0,0,1,4.06-4.13q31.52-10.33,62.94-21a5,5,0,0,1,5.14.77q31.46,23,63.1,45.81a4.73,4.73,0,0,1,2.17,4.65,220.78,220.78,0,0,1-15.31,70.67,216.36,216.36,0,0,1-20.92,39.77,3.42,3.42,0,0,1-3.34,1.66q-39.14,0-78.28,0a4,4,0,0,1-3.63-1.83Q326.28,343,306,315.59a3.86,3.86,0,0,1-.6-4c4.16-12.58,8.23-25.2,12.31-37.81.87-2.69,1.72-5.38,2.58-8.07"/><text class="cls-10" transform="translate(321.11 303.15) rotate(0.29) scale(0.9 1)">T<tspan class="cls-5" x="12.09" y="0">eam of</tspan><tspan class="cls-11"><tspan x="0" y="22.77">t</tspan><tspan class="cls-5" x="9.25" y="22.77">he </tspan><tspan class="cls-12" x="49.65" y="22.77">w</tspan><tspan class="cls-5" x="75.43" y="22.77">eek</tspan></tspan></text></g></svg>