<svg xmlns="http://www.w3.org/2000/svg" viewBox="0 0 334.49 334.49"><defs><style>.cls-1{fill:#fff;}.cls-2{font-size:18.89px;fill:#3c235a;font-family:Futura-Medium, Futura;letter-spacing:-0.06em;}.cls-3{letter-spacing:-0.06em;}</style></defs><title>plname</title><g id="Layer_9" data-name="Layer 9"><path class="cls-1" d="M206.78,137.64c3.29,2.35,6.62,4.64,9.85,7.07a3.65,3.65,0,0,0,3.79.61q20.88-6.88,41.82-13.56a3.28,3.28,0,0,0,2.44-2.43q7.73-24.65,15.66-49.24a3.13,3.13,0,0,0-.67-3.34,146.31,146.31,0,0,0-35.95-31.69,143.38,143.38,0,0,0-26.79-13,2.26,2.26,0,0,0-2.43.43q-20.87,15.4-41.78,30.75a2.62,2.62,0,0,0-1.22,2.4q.06,22.62,0,45.24a2.56,2.56,0,0,0,1.25,2.37c7.16,5.08,14.29,10.21,21.43,15.33,1.52,1.09,3,2.2,4.55,3.29"/></g><g id="Layer_10" data-name="Layer 10"><text class="cls-2" transform="translate(201.91 112.23) rotate(0.29) scale(1.07 1)">P<tspan class="cls-3" x="9.13" y="0">r</tspan><tspan x="14.99" y="0">emier</tspan><tspan x="0" y="15.76">League</tspan></text></g></svg>