<?xml version="1.0" encoding="utf-8"?>
<!-- Generator: Adobe Illustrator 21.0.0, SVG Export Plug-In . SVG Version: 6.00 Build 0)  -->
<svg version="1.1" xmlns="http://www.w3.org/2000/svg" xmlns:xlink="http://www.w3.org/1999/xlink" x="0px" y="0px"
	 viewBox="0 0 500 500" style="enable-background:new 0 0 500 500;" xml:space="preserve">
<style type="text/css">
	.st0{fill:#FFFFFF;}
	.st1{display:none;fill:#3C235A;}
	.st2{fill:#3C235A;}
	.st3{font-family:'Futura-Bold';}
	.st4{font-size:70.9222px;}
	.st5{letter-spacing:-3.1;}
	.st6{font-size:58.1178px;}
	.st7{fill:#FFFFFF;stroke:#3D235A;stroke-width:3;stroke-miterlimit:10;}
	.st8{fill:#3C245B;}
	.st9{fill:#3C245A;}
	.st10{font-size:27.2988px;}
	.st11{letter-spacing:-1.1;}
</style>
<g id="Layer_1">
	<ellipse class="st0" cx="250" cy="250" rx="243.4" ry="243.8"/>
	<circle class="st1" cx="250.5" cy="252.3" r="223.5"/>
	<circle class="st2" cx="250.6" cy="250.3" r="222.9"/>
</g>
<g id="Layer_7">
	<text transform="matrix(0.9588 6.903053e-04 -7.299979e-04 1 191.5658 242.8484)"><tspan x="0" y="0" class="st2 st3 st4 st5"> </tspan><tspan x="20.1" y="0" class="st2 st3 st6 st5">Fan</tspan><tspan x="0" y="53.1" class="st2 st3 st6 st5">Site</tspan></text>
	<text transform="matrix(0.9588 6.903053e-04 -7.299979e-04 1 196.5656 245.3916)"><tspan x="0" y="0" class="st7 st3 st4 st5"> </tspan><tspan x="20.1" y="0" class="st7 st3 st6 st5">Fan</tspan><tspan x="0" y="53.1" class="st7 st3 st6 st5">Site</tspan></text>
</g>
<g id="logo">
	<path class="st0" d="M191.5,205.3c-5,3.5-10,7-14.9,10.7c-1.9,1.4-3.4,1.7-5.7,0.9c-21-6.9-42-13.7-63.1-20.5c-2-0.6-3-1.6-3.7-3.7
		c-7.8-24.8-15.7-49.6-23.6-74.3c-0.6-2-0.3-3.4,1-5c15.4-18.9,33.6-34.9,54.2-47.8c12.7-8,26.3-14.4,40.4-19.6
		c1.5-0.6,2.5-0.2,3.7,0.6c21,15.5,42,31,63.1,46.4c1.3,1,1.8,2,1.8,3.6c-0.1,22.8-0.1,45.5,0,68.3c0,1.7-0.6,2.6-1.9,3.6
		c-10.8,7.7-21.6,15.4-32.3,23.1c-2.3,1.6-4.6,3.3-6.9,5"/>
	<g>
		<path class="st8" d="M136.9,82.6c3.4,1.4,6.3,3.4,9.2,5.7c-0.6-3.9-1.2-7.7-1.9-11.7c1.6,1,2.9,2,4.3,2.9c2.5,1.7,5.1,3.4,7.6,5.1
			c0.6,0.4,0.9,0.5,1.1-0.4c1.2-3.5,2.4-7.1,3.7-10.6c0.1-0.2,0.2-0.5,0.3-0.8c0.5,0.8,1,1.6,1.5,2.3c1.7,2.6,3.4,5.2,5,7.8
			c0.5,0.8,0.8,0.7,1.4,0.1c2.8-3.1,5.7-6.2,8.6-9.3c0.3-0.3,0.5-0.6,0.7-0.9c0.1,0,0.2,0.1,0.3,0.1c0.3,3.8,0.5,7.6,0.8,11.6
			c2.2-2.8,4.6-5.2,7.2-7.3c0.2,0.2,0.1,0.4,0.1,0.5c-1.6,3.7-2.4,7.5-2.8,11.5c-0.1,0.8-0.2,1.1-1.2,0.9
			c-13.5-3.3-26.4-1.8-38.7,4.6c-0.7,0.4-0.9,0.3-1.2-0.5c-1.2-3.5-2.7-6.9-4.9-10C137.8,83.7,137.4,83.3,136.9,82.6z"/>
		<path class="st9" d="M212,141.4c-1.5-8.2-5.1-15.4-10-22.2c-0.4,0.9-0.2,1.9-0.6,2.7c-1.3-1.4-2.6-2.7-3.8-4
			c0.5-0.6,1.5-0.8,1.4-1.8c-0.2-1.3-0.6-2.6-1.8-3.1c-1-0.4-2,0.5-2.8,1.2c-0.1,0.1-0.2,0.1-0.2,0.2c-0.3,0.5-0.6,0.4-1,0.1
			c-1.2-0.9-2.4-1.7-4-2.1c0.4,0.5,0.8,0.9,1.1,1.4c1.5,2.7,3.7,4.9,6.2,6.7c0.2,0.2,0.4,0.4,0.7,0.6c0.7,0.7,1.5,1.3,2.1,2.2
			c-0.2,0.1-0.3,0.1-0.4,0c-4-1.3-7.9-1.2-11.9,0.2c-0.6,0.2-0.9-0.1-1.2-0.4c-1.9-2.1-3.9-4.2-6.1-6.1c-0.4-0.4-0.6-0.8-0.6-1.3
			c-0.1-1.5,0.7-2.6,1.6-3.8c-1.6,0.1-2.9,0.7-4,1.6c-0.4,0.4-0.7,0.4-1.2,0c-1.9-1.3-4.1-2.2-6.3-3c-0.5-0.2-1-0.3-1.5-0.1
			c-2.8,0.6-5.2,1.9-7.4,3.9c1.7,1.1,3.3,2,5.1,2.5c2.1,0.6,4.3,0.3,6.5,0.4c1.4,0.1,2.6,0.5,3.6,1.4c2,1.9,4,3.7,5.8,5.8
			c0.1,0.2,0.4,0.3,0.3,0.6c-0.6-0.2-1.1-0.4-1.7-0.5c-2.3-0.5-4.7-0.6-7-0.6c-2.6,0.1-5.3,0.3-7.9-0.1c-3.3-0.5-8.1-3.4-8.5-8
			c-0.1-0.6-0.3-0.7-0.8-0.8c-1.1-0.1-2.2-0.3-3.4-0.5c2.2-2.5,4.6-4.3,7.7-5.4c-0.5-0.5-0.9-0.8-1.4-1.2c-1-0.8-1-0.8,0-1.6
			c4-2.9,8.5-4.5,13.3-5.3c1-0.2,1.8,0,2.6,0.4c3,1.5,5.8,3.2,8.4,5.2c0.7,0.5,1,0.4,1.3-0.3c0.6-1.3,0.8-2.7,1.1-4.2
			c5.1,2.4,9.5,5.6,13.6,9.3c0.1-0.4-0.1-0.6-0.2-0.9c-1.1-2.6-2.2-5.2-2.5-8.1c0-0.5-0.4-0.8-0.7-1.1c-2.4-2.1-5.1-3.6-8-4.8
			c-2.2-0.9-4.4-1.6-6.8-2.1c0.7,1.7,1.2,3.4,1.2,5.3c-0.4-0.4-0.6-0.6-0.9-0.9c-1.7-1.8-3.5-3.5-5.7-4.8c-0.5-0.3-1-0.6-1.6-0.6
			c-7-0.6-13.9,0.3-20.6,2.4c-2.4,0.8-4.7,1.7-7,2.9c3.4,0.6,6.2,3,6.7,5.6c-0.9-0.7-1.9-1.2-2.9-1.5c-4.7-1.5-8.4,1.1-8.7,6
			c-0.1,2.6,0.6,5.1,1.7,7.5c-1.2-0.5-2.1-1.3-2.8-2.3c-2.4-3.4-2.4-7-1.3-10.8c-6.7,4.8-11.9,10.8-15.7,18.2
			c1.9,0.3,3.6,0.6,5.5,0.9c-3.1,3.6-5.3,7.6-7.1,11.8c-1.8,4.3-3.2,8.6-3.4,13.3c3-0.9,5.8-1.8,8.8-2.6c-0.1,0.4-0.2,0.8-0.2,1.1
			c-0.1,0.4-0.2,0.7-0.2,1.1c-0.8,5.7-0.7,11.5,0,17.2c0.5,3.4,1.2,6.7,2.7,9.8c1,2.1,1,2.1,2.7,0.6c3.1-2.6,5.8-5.5,8.3-8.6
			c1.7-2.1,3.2-4.2,4.8-6.5c1.3,4,1.9,7.9,2,11.9c0.1,5.2-0.8,10.3-1.8,15.3c-0.1,0.7,0,0.9,0.6,1.3c2.1,1.1,4.4,1.9,6.7,2.6
			c1.1,0.3,2.3,0.3,3.3,0.9c3.9,0,7.7,0,11.6,0c0.7-0.4,1.6-0.4,2.4-0.6c5.6-1.2,10.7-3.3,15.5-6.6c0.5,2,1,3.9,1.5,5.8
			c0.1,0.6,0.3,0.7,0.8,0.4c7.1-4.8,12.5-10.9,15.6-19c1.3-3.3,2-6.8,2.5-10.5c1.5,1.6,2.8,3,4.2,4.5
			C212.5,157.5,213.5,149.6,212,141.4z M175.9,143c-1.3-2.4-2.6-4.8-3.9-7.2c-0.2-0.4-0.4-0.7,0.1-1.1c3.8-2.8,7.8-5.3,12.4-6.6
			c1-0.3,1.7-0.3,2.6,0.4c1.4,1.1,3,1.8,4.6,2.5c0.5,0.2,0.7,0.4,0.7,0.9c0,0.9,0,1.8,0,3.1c0.8,2.2-0.7,3.6-2.6,4.9
			c-2.4,1.7-4.8,3.4-7.5,4.5c-0.4,0.2-0.9,0.3-1.3,0.5C177.8,145.9,177.5,145.8,175.9,143z M197.9,153.5c-1.3,2.6-2.8,5-5.5,6.8
			c0.1-2.6-0.2-5-0.9-7.4c-2.1,1.9-4.5,3-7,3.8c-0.7,0.2-1.1,0.2-1.4-0.6c-0.8-1.7-1.8-3.3-2.6-4.9c-0.2-0.3-0.5-0.6,0.2-0.7
			c2.5-0.4,4.7-1.7,6.8-3.1c0.4-0.3,0.9-0.5,1.2-0.8c2-2.2,4.5-2.1,7.1-2c0.4,0,0.6,0.1,0.8,0.4c0.2,0.2,0.3,0.5,0.5,0.7
			C198.9,148.1,199.3,150.6,197.9,153.5z M201.9,143.5c-0.1,0.3-0.2,0.5-0.4,0.8c0,0.1-0.1,0.1-0.3,0.2c-1-2.3-2.6-4.1-4.3-5.8
			c-0.5-0.5-0.7-0.9-0.7-1.6c0.1-1.7,0-3.3,0-5c0-0.5,0.2-0.8,0.6-1.1c1.2-0.8,2.4-1.6,3.6-2.5c0.4-0.3,0.6-0.4,0.8,0.2
			C203.1,133.5,203.8,138.4,201.9,143.5z"/>
	</g>
</g>
<g id="team">
	<path class="st0" d="M189.3,292.3c1.8,5.8,3.5,11.7,5.5,17.5c0.7,2.2,0.5,3.8-0.9,5.7c-13.2,17.8-26.2,35.6-39.3,53.5
		c-1.2,1.7-2.4,2.4-4.6,2.3c-26-0.4-52-0.7-78-0.9c-2.1,0-3.3-0.8-4.5-2.5c-13.1-20.6-22.5-42.8-28.3-66.5
		c-3.6-14.6-5.4-29.5-5.9-44.5c-0.1-1.6,0.6-2.4,1.8-3.3c21.3-15.1,42.6-30.1,63.9-45.3c1.3-1,2.4-1.1,4-0.6
		c21.6,7.2,43.2,14.4,64.8,21.5c1.6,0.5,2.3,1.4,2.8,2.9c3.9,12.7,7.9,25.3,11.8,38c0.8,2.7,1.7,5.4,2.6,8.1"/>
	<text transform="matrix(-0.2699 -0.8551 0.9536 -0.301 78.0878 343.2202)" class="st2 st3 st10 st11">Teams</text>
</g>
<g id="table">
	<path class="st0" d="M274.9,180.1c-4.9-3.6-9.8-7.3-14.8-10.8c-1.9-1.3-2.7-2.7-2.7-5.2c0-22.1-0.1-44.2-0.2-66.3
		c0-2.1,0.5-3.4,2.3-4.6c21.1-15.1,42.2-30.3,63.3-45.6c1.7-1.2,3.1-1.4,5.1-0.6c22.8,8.8,43.6,21,62.3,36.6
		c11.5,9.6,21.9,20.5,31.2,32.3c1,1.3,1,2.3,0.5,3.7c-8.2,24.8-16.3,49.6-24.4,74.4c-0.5,1.6-1.3,2.4-2.9,2.9
		c-21.6,7-43.3,14.1-64.9,21.3c-1.6,0.5-2.7,0.3-4-0.7c-10.7-7.9-21.4-15.7-32.1-23.5c-2.3-1.7-4.6-3.3-6.9-5"/>
	<text transform="matrix(0.7212 0.5328 -0.5942 0.8043 339.8406 78.1153)" class="st2 st3 st10 st11">Table</text>
</g>
<g id="plname">
	<path class="st0" d="M272.2,321.4c6.1,0,12.2,0.2,18.3,0c2.3,0,3.8,0.7,5.2,2.6c13,17.9,26.1,35.7,39.2,53.5c1.2,1.7,1.5,3,0.8,5.1
		c-8.2,24.7-16.3,49.4-24.3,74.1c-0.7,2-1.7,2.9-3.8,3.5c-23.6,6.3-47.6,8.6-72,7c-15-1-29.8-3.7-44.3-7.8c-1.6-0.4-2.2-1.3-2.6-2.7
		c-7.9-24.9-15.9-49.7-24-74.5c-0.5-1.6-0.3-2.7,0.6-4c13.4-18.4,26.7-36.9,40-55.3c1-1.4,2-1.8,3.6-1.8c13.3,0.1,26.5,0.1,39.8,0.2
		c2.8,0,5.6,0,8.5,0"/>
	<g>
		<path class="st2" d="M252.4,413.1c-3.7,4.7-7.6,4.7-12.5-0.2c-2,3-4.8,4-8.2,3.5c-3.7-0.5-6.4-3.4-6.8-7.2
			c-0.3-2.3-0.1-4.6-0.1-6.8c0-2.9,0-5.8,0-8.6c0-0.9,0.3-1.1,1.1-1c1.4,0.1,2.8,0.1,4.2,0c0.9,0,1.2,0.2,1.2,1.2
			c-0.1,4,0,8.1,0,12.1c0,0.6,0,1.1,0.1,1.7c0.4,1.9,1.7,2.8,3.6,2.8c1.9-0.1,3.1-1.1,3.5-3c0.1-0.6,0.1-1.3,0.1-1.9
			c0-4,0-7.9,0-11.9c0-0.7,0.1-1,0.9-1c1.5,0.1,3.1,0.1,4.6,0c0.7,0,0.9,0.2,0.9,0.9c0,4.1,0,8.2,0,12.2c0,0.5,0,1,0.1,1.5
			c0.4,2.3,1.7,3.3,3.9,3.2c2-0.1,3.3-1.5,3.3-3.6c0.1-2.2,0-4.4,0-6.5c0-2.2,0-4.5,0-6.7c0-0.6,0.2-0.8,0.8-0.8c1.6,0,3.2,0,4.8,0
			c0.6,0,0.8,0.1,0.8,0.7c0,7.3,0,14.5,0,21.8c0,0.5-0.1,0.7-0.7,0.7c-1.5,0-3,0-4.4,0c-0.5,0-0.7-0.2-0.7-0.7
			C252.8,414.6,252.6,413.9,252.4,413.1z"/>
		<path class="st2" d="M325.5,371.9c0,5.4,0,10.8,0,16.1c0,0.8-0.2,1-1,1c-1.6-0.1-3.3-0.1-5,0c-0.8,0-1-0.2-1-1
			c0-8.6,0-17.1,0-25.7c0-0.9-0.2-1.2-1.2-1.2c-4.2,0.1-8.4,0-12.6,0c-0.8,0-1.1-0.1-1.1-1c0.1-1.6,0-3.2,0-4.7
			c0-0.6,0.1-0.8,0.8-0.8c6.7,0,13.5,0,20.2,0c0.9,0,0.8,0.4,0.8,1C325.5,361,325.5,366.5,325.5,371.9z"/>
		<path class="st2" d="M198.3,370.2c0.1-2-0.2-4.5,0.2-6.9c0.7-5.1,4.3-8.6,9.5-9.1c3.5-0.4,6.7,0.2,9.5,2.5c2.5,2.1,3.5,5,3.5,8.1
			c0.1,4.1,0,8.2,0,12.3c0,0.6-0.3,0.7-0.8,0.7c-1.6,0-3.2,0-4.7,0c-0.7,0-0.9-0.2-0.9-0.9c0-3.4,0-6.9,0-10.3c0-0.6,0-1.1,0-1.7
			c-0.2-2.9-1.8-4.7-4.6-4.7c-2.9-0.1-5,1.7-5.1,4.6c-0.2,3.2-0.1,6.5-0.1,9.7c0,1.1,0.5,2.6-0.2,3.2c-0.6,0.5-2.1,0.2-3.2,0.2
			c-0.7,0-1.4,0-2.1,0c-0.7,0.1-1-0.1-1-0.9C198.3,374.9,198.3,372.8,198.3,370.2z"/>
		<path class="st2" d="M293.1,412.7c-1.6,2.7-3.9,3.8-6.8,3.5c-0.6-0.1-0.9-0.2-0.9-1c0.1-1.8,0-3.6,0-5.4c1.3,0.3,2.4,0.4,3.6,0.1
			c2.5-0.5,3.9-2.4,4-5.4c0-3.6,0-7.2,0-10.7c0-0.8,0.1-1.1,1-1.1c1.5,0.1,3.1,0,4.6,0c0.6,0,0.8,0.2,0.8,0.8c0,7.2,0,14.5,0,21.7
			c0,0.6-0.1,0.8-0.7,0.8c-1.4,0-2.7,0-4.1,0c-0.6,0-0.8-0.2-0.9-0.8C293.5,414.4,293.3,413.6,293.1,412.7z"/>
		<path class="st2" d="M180.1,412.6c-1.7,2.8-4,3.8-6.9,3.5c-0.5-0.1-0.8-0.2-0.8-0.8c0-1.6,0-3.2,0-4.8c0-0.6,0.2-0.6,0.7-0.5
			c1,0.2,2,0.2,2.9,0c2.5-0.5,3.8-2.4,3.9-5.3c0-3.6,0.1-7.2,0-10.7c0-1,0.3-1.2,1.2-1.2c1.5,0.1,2.9,0,4.4,0c0.6,0,0.8,0.1,0.8,0.7
			c0,7.3,0,14.5,0,21.8c0,0.5-0.1,0.7-0.6,0.7c-1.4,0-2.9,0-4.3,0c-0.5,0-0.7-0.2-0.8-0.7C180.5,414.5,180.3,413.7,180.1,412.6z"/>
		<path class="st2" d="M221.5,404.3c0,3.6,0,7.2,0,10.7c0,0.8-0.2,0.9-0.9,0.9c-1.5-0.1-3.1,0-4.6,0c-0.6,0-0.9-0.1-0.9-0.8
			c0-7.2,0-14.5,0-21.7c0-0.6,0.2-0.8,0.8-0.8c1.6,0,3.2,0,4.8,0c0.7,0,0.8,0.2,0.8,0.8C221.5,397.1,221.5,400.7,221.5,404.3z"/>
		<path class="st2" d="M214.3,423c0-2.2,1.7-3.9,3.9-3.9c2.3,0,4.1,1.7,4,3.9c0,2.2-1.7,3.9-3.9,3.9C216,427,214.3,425.3,214.3,423z
			"/>
		<path class="st2" d="M224.3,377.7c0.6,0.6,1.9,0.2,2.9,0.2c2.6,0,2.6,0,3.2-2.5c0-0.1,0.1-0.2,0.1-0.3c0.1,0.1,0.2,0.1,0.3,0.2
			c2.2,2.6,5,3.3,8.2,2.7c7.8-1.4,12.1-9.3,9.1-16.6c-3.1-7.6-12.5-9.6-17.5-4.7c0-0.7,0-1.2,0-1.6c0.1-3.3,2-5.3,5.3-5.6
			c3-0.3,5.7,0.5,8,2.5c0.5,0.4,0.7,0.4,1.1-0.1c0.8-1.2,1.6-2.4,2.5-3.5c0.6-0.7,0.4-1-0.2-1.5c-3.7-3.1-7.9-4.1-12.6-3.5
			c-6.2,0.8-10.3,5.1-10.4,11.3c-0.2,6.7-0.1,13.4-0.1,20.1C224.1,375.8,223.7,377.1,224.3,377.7z M236.1,360.2c3.4,0,6.1,2.6,6.1,6
			c0,3.5-2.6,6.1-6,6.1c-3.4,0-6.1-2.7-6.1-6.2C230.1,362.9,232.8,360.2,236.1,360.2z"/>
		<path class="st2" d="M302,419.7c1.2,4.8,5.5,8,10.8,8.2c4,0.2,8,0,12,0.1c0.8,0,0.7-0.5,0.7-0.9c0-5.5,0-11.1,0-16.6
			c0-5.5,0-11,0-16.5c0-1-0.3-1.2-1.2-1.2c-1.5,0.1-3.1,0.1-4.6,0c-0.8,0-1.1,0.2-1.1,1c0.1,3.1,0,6.3,0,9.4c0,1-0.3,1.2-1.2,1.2
			c-1.4-0.1-2.7-0.1-4.1,0C304.2,404.8,300,412,302,419.7z M312.6,411.1c1.8-0.4,3.6-0.2,5.5-0.2c0.6,0,0.5,0.4,0.5,0.7
			c0,1.5,0,3.1,0,4.6c0,1.5,0,3,0,4.5c0,0.3,0.1,0.8-0.5,0.7c-1.9-0.1-3.8,0.2-5.7-0.3c-2.5-0.7-3.9-2.6-3.8-5.1
			C308.7,413.5,310.2,411.7,312.6,411.1z"/>
		<path class="st2" d="M251.3,375.2c0,2.7,0,2.7,2.7,2.7c1,0,2.2,0.4,2.8-0.2c0.6-0.5,0.5-1.7,0.8-2.5c0,0,0.1,0,0.2-0.1
			c2.3,3,5.4,3.6,8.8,3c8.6-1.5,12.6-11.5,7.6-18.7c-3-4.3-8-6.3-12.5-4.8c-1.6,0.5-2.9,1.6-4.1,3c-0.2-0.8-0.4-1.4-0.5-2.1
			c-0.1-0.7-0.4-0.8-1-0.8c-1.2,0-2.5,0.1-3.7,0c-0.9-0.1-1.1,0.2-1.1,1.1C251.4,362.2,251.3,368.7,251.3,375.2z M263.6,360.2
			c3.4,0,6,2.6,6,6.1c0,3.5-2.6,6.1-6,6.1c-3.4,0-6-2.7-6-6.2C257.6,362.9,260.2,360.2,263.6,360.2z"/>
		<path class="st2" d="M173.7,364c-1,0-1.4,0.2-1.4,1.2c0,0.6,0,1.3,0,1.9c0.2,3.7,1.6,6.8,4.7,9c3.8,2.8,9.2,3,13.3,0.5
			c4.2-2.6,6.5-7.5,5.6-12.6c-0.8-4.9-3.6-8.2-8.4-9.5c-5.1-1.4-9.7-0.4-13.6,3.4c-0.4,0.4-0.2,0.6,0.1,0.9c1,1,2,1.9,2.9,2.9
			c0.4,0.5,0.7,0.4,1.2,0c1.7-1.6,3.8-2.2,6.2-2.1c2.5,0.1,4.6,1.8,5.2,4.3c-0.4,0-0.8,0-1.2,0C183.4,364.1,178.5,364.1,173.7,364z
			 M189.1,369.6c-0.7,1.9-2.9,3.3-5.3,3.3c-2.3-0.1-4.3-1.5-5-3.4c-0.2-0.6,0-0.7,0.5-0.7c1.6,0,3.2,0,4.7,0c1.5,0,3,0,4.5,0
			C189.3,368.7,189.4,369,189.1,369.6z"/>
		<path class="st2" d="M284.2,376.9c4,2.4,9.5,2.1,13.2-0.7c4.3-3.3,5.7-7.8,4.5-13c-1.1-4.7-4.2-7.6-8.9-8.7
			c-4.9-1.1-9.3,0-12.9,3.6c-0.4,0.4-0.2,0.6,0.1,0.9c1,1,2,1.9,2.9,2.9c0.5,0.5,0.7,0.4,1.2,0c1.8-1.6,3.9-2.3,6.3-2.1
			c2.5,0.2,4.6,1.9,5,4.3c-1.6,0-3.1,0-4.6,0c-3.8,0-7.6,0-11.4,0c-0.4,0-0.9-0.2-0.9,0.5C278.2,369.2,279.5,374.1,284.2,376.9z
			 M285.7,368.8c1.5,0,3.1,0,4.6,0c1.5,0,3,0,4.4,0c0.7,0,1,0.1,0.7,0.9c-0.8,1.9-2.9,3.2-5.2,3.2c-2.2,0-4.2-1.4-5-3.3
			C284.9,369,285,368.8,285.7,368.8z"/>
		<path class="st2" d="M193.6,414.4c3.9,2.9,9.5,2.9,13.7,0.1c4.1-2.7,6.2-8.1,5-13.1c-1.1-4.7-4-7.7-8.6-8.9
			c-5-1.2-9.5-0.2-13.2,3.5c-0.4,0.4-0.3,0.6,0.1,1c1,0.9,1.9,1.9,2.8,2.9c0.4,0.5,0.7,0.6,1.2,0.1c1.9-1.8,4.2-2.4,6.7-2
			c2,0.3,3.5,1.4,4.4,3.2c0.3,0.7,0.4,1-0.6,1c-2.5-0.1-5.1,0-7.6,0c-2.6,0-5.1,0-7.7,0c-0.5,0-0.8,0.1-0.9,0.7
			C188.6,407.5,189.8,411.5,193.6,414.4z M196.1,406.8c1.5,0,3,0,4.5,0c1.5,0,3.1,0,4.6,0c0.6,0,0.7,0.1,0.5,0.7
			c-0.7,2-2.7,3.3-5.1,3.4c-2.4,0-4.4-1.3-5.2-3.2C195.2,407,195.4,406.8,196.1,406.8z"/>
		<path class="st2" d="M266.8,414.9c4.2,2.5,9.8,2.1,13.6-1c3.9-3.1,5.5-8.7,3.9-13.6c-1.6-4.9-5.6-7.9-11.2-8.2
			c-3.9-0.2-7.3,1-10.2,3.8c-0.5,0.4-0.6,0.7,0,1.2c1,0.9,1.9,1.9,2.8,2.9c0.4,0.5,0.7,0.4,1.1,0c1.9-1.8,4.2-2.4,6.7-2
			c2,0.3,3.6,1.4,4.4,3.3c0.3,0.7,0.3,1-0.6,0.9c-2.5-0.1-5.1,0-7.6,0c-2.6,0-5.2,0-7.8,0c-0.4,0-0.7-0.1-0.8,0.5
			C260.8,407,262.1,412.2,266.8,414.9z M268.3,406.8c1.6,0,3.2,0,4.7,0c1.5,0,3,0,4.5,0c0.5,0,0.8,0,0.6,0.7c-0.7,2-2.7,3.4-5.2,3.4
			c-2.4,0-4.4-1.3-5.1-3.3C267.6,407,267.7,406.8,268.3,406.8z"/>
	</g>
</g>
<g id="teamweek">
	<path class="st0" d="M324.9,251.5c1.9-5.8,3.9-11.6,5.6-17.4c0.7-2.2,1.8-3.4,4.1-4.1c21-6.9,42-13.9,62.9-21
		c2-0.7,3.4-0.5,5.1,0.8c21,15.4,42,30.6,63.1,45.8c1.7,1.2,2.3,2.5,2.2,4.7c-1.2,24.4-6.4,48-15.3,70.7
		c-5.5,14-12.6,27.2-20.9,39.8c-0.9,1.4-1.9,1.7-3.3,1.7c-26.1,0-52.2,0-78.3,0c-1.7,0-2.6-0.5-3.6-1.8
		c-13.4-18.4-26.9-36.7-40.5-55c-1-1.4-1.1-2.4-0.6-4c4.2-12.6,8.2-25.2,12.3-37.8c0.9-2.7,1.7-5.4,2.6-8.1"/>
	<text transform="matrix(-0.2856 0.85 -0.9479 -0.3185 444.8848 262.6107)"><tspan x="0" y="0" class="st2 st3 st10 st11">Team of</tspan><tspan x="-9.3" y="22.8" class="st2 st3 st10 st11">the week</tspan></text>
</g>
</svg>
