<svg xmlns="http://www.w3.org/2000/svg" viewBox="0 0 841.89 595.28"><defs><style>.cls-1,.cls-12,.cls-14,.cls-21,.cls-33,.cls-5{fill:#3c235a;}.cls-2,.cls-20,.cls-26,.cls-7{fill:#fff;}.cls-3{fill:#3c245b;}.cls-4{fill:#3c245a;}.cls-5{font-size:18.89px;font-family:Futura-Medium, Futura;letter-spacing:-0.06em;}.cls-6{letter-spacing:-0.06em;}.cls-7{font-size:47px;letter-spacing:-0.06em;}.cls-12,.cls-14,.cls-21,.cls-26,.cls-33,.cls-7{font-family:Futura-Bold, Futura;font-weight:700;}.cls-8,.cls-9{font-size:38.51px;}.cls-8{letter-spacing:-0.06em;}.cls-9{letter-spacing:-0.06em;}.cls-10{letter-spacing:-0.05em;}.cls-11{letter-spacing:-0.06em;}.cls-12,.cls-14{font-size:18.09px;}.cls-12{letter-spacing:-0.09em;}.cls-13{letter-spacing:-0.06em;}.cls-14{letter-spacing:-0.09em;}.cls-15{letter-spacing:-0.03em;}.cls-16{letter-spacing:-0.06em;}.cls-17{letter-spacing:-0.08em;}.cls-18{opacity:0.78;}.cls-19{fill:#3d235a;stroke:#fff;stroke-miterlimit:10;stroke-width:6px;}.cls-20{opacity:0.73;}.cls-21{font-size:11.7px;letter-spacing:-0.06em;}.cls-22,.cls-23,.cls-24,.cls-25{font-size:9.59px;}.cls-22{letter-spacing:-0.12em;}.cls-23{letter-spacing:-0.06em;}.cls-24{letter-spacing:-0.07em;}.cls-25{letter-spacing:-0.06em;}.cls-26{font-size:4.28px;letter-spacing:-0.08em;}.cls-27{letter-spacing:-0.06em;}.cls-28{letter-spacing:-0.03em;}.cls-29{letter-spacing:-0.06em;}.cls-30{letter-spacing:-0.04em;}.cls-31{letter-spacing:-0.05em;}.cls-32{letter-spacing:-0.04em;}.cls-33{font-size:10.7px;letter-spacing:-0.06em;}.cls-34,.cls-35{font-size:8.77px;}.cls-34{letter-spacing:-0.06em;}.cls-35{letter-spacing:-0.05em;}</style></defs><title>gon</title><g id="Layer_4" data-name="Layer 4"><rect class="cls-1" x="-647.62" y="-10.48" width="1498.01" height="618.66"/></g><g id="Layer_2" data-name="Layer 2"><ellipse class="cls-2" cx="202.72" cy="285.08" rx="161.3" ry="161.6"/><g id="Layer_3" data-name="Layer 3"><circle class="cls-1" cx="204.99" cy="281.99" r="148.13"/></g><path class="cls-2" d="M163.92,255.48c-3.29,2.35-6.62,4.64-9.85,7.07a3.65,3.65,0,0,1-3.79.61q-20.88-6.88-41.82-13.56a3.28,3.28,0,0,1-2.44-2.43q-7.73-24.65-15.66-49.24a3.13,3.13,0,0,1,.67-3.34A146.31,146.31,0,0,1,127,162.9a143.38,143.38,0,0,1,26.79-13,2.26,2.26,0,0,1,2.43.43q20.87,15.4,41.78,30.75a2.62,2.62,0,0,1,1.22,2.4q-.06,22.62,0,45.24A2.56,2.56,0,0,1,198,231.1c-7.16,5.08-14.29,10.21-21.43,15.33-1.52,1.09-3,2.2-4.55,3.29"/><path class="cls-2" d="M242.32,255.48c3.29,2.35,6.62,4.64,9.85,7.07a3.65,3.65,0,0,0,3.79.61q20.88-6.88,41.82-13.56a3.28,3.28,0,0,0,2.44-2.43q7.73-24.65,15.66-49.24a3.13,3.13,0,0,0-.67-3.34,146.31,146.31,0,0,0-35.95-31.69,143.38,143.38,0,0,0-26.79-13,2.26,2.26,0,0,0-2.43.43q-20.87,15.4-41.78,30.75a2.62,2.62,0,0,0-1.22,2.4q.06,22.62,0,45.24a2.56,2.56,0,0,0,1.25,2.37c7.16,5.08,14.29,10.21,21.43,15.33,1.52,1.09,3,2.2,4.55,3.29"/><path class="cls-2" d="M242.76,312.49c-1.24,3.85-2.41,7.72-3.74,11.53a3.65,3.65,0,0,0,.58,3.8q12.9,17.8,25.64,35.71a3.28,3.28,0,0,0,3.06,1.58q25.84-.13,51.68-.06a3.13,3.13,0,0,0,3-1.65,146.31,146.31,0,0,0,19.25-43.88A143.38,143.38,0,0,0,346.42,290a2.26,2.26,0,0,0-1.15-2.19q-21-15.19-42-30.45a2.62,2.62,0,0,0-2.66-.43q-21.53,6.94-43.1,13.77a2.56,2.56,0,0,0-1.88,1.91c-2.66,8.37-5.38,16.72-8.08,25.08-.58,1.78-1.17,3.56-1.75,5.33"/><path class="cls-2" d="M163.13,313.11c1.19,3.86,2.32,7.75,3.6,11.58a3.65,3.65,0,0,1-.62,3.79Q153,346.12,140.06,363.88a3.28,3.28,0,0,1-3.08,1.54q-25.83-.44-51.67-.67a3.13,3.13,0,0,1-3-1.69A146.31,146.31,0,0,1,63.62,319a143.38,143.38,0,0,1-3.88-29.52,2.26,2.26,0,0,1,1.17-2.18q21.2-14.95,42.36-30a2.62,2.62,0,0,1,2.66-.39q21.45,7.19,42.93,14.27a2.56,2.56,0,0,1,1.86,1.94c2.56,8.4,5.18,16.78,7.79,25.17.56,1.79,1.13,3.57,1.69,5.35"/><path class="cls-2" d="M188.23,332.44c-4,0-8.09.1-12.13,0a3.65,3.65,0,0,0-3.43,1.72q-12.92,17.78-26,35.45a3.28,3.28,0,0,0-.55,3.4q8.14,24.52,16.09,49.11a3.13,3.13,0,0,0,2.49,2.32,146.31,146.31,0,0,0,47.69,4.69A143.38,143.38,0,0,0,241.72,424a2.26,2.26,0,0,0,1.73-1.77q7.93-24.7,15.92-49.37a2.62,2.62,0,0,0-.42-2.66q-13.27-18.32-26.45-36.7a2.56,2.56,0,0,0-2.4-1.19c-8.78.07-17.57.07-26.35.09h-5.62"/></g><g id="Layer_8" data-name="Layer 8"><path class="cls-3" d="M127.8,174.15a26.36,26.36,0,0,1,6.12,3.74l-1.25-7.77,2.85,1.91c1.67,1.13,3.35,2.25,5,3.4.41.28.58.31.76-.24.78-2.35,1.61-4.67,2.43-7,.06-.16.12-.31.22-.56l1,1.55c1.1,1.72,2.22,3.43,3.29,5.17.33.54.51.48.9.06,1.89-2.06,3.8-4.09,5.7-6.14.18-.19.33-.4.49-.61l.17.08.56,7.7a27.23,27.23,0,0,1,4.8-4.82.26.26,0,0,1,.05.34,25.23,25.23,0,0,0-1.85,7.6c-.05.52-.14.72-.76.57a35.5,35.5,0,0,0-25.61,3c-.48.25-.63.21-.81-.31a27.55,27.55,0,0,0-3.23-6.66C128.38,174.9,128.13,174.58,127.8,174.15Z"/><path class="cls-4" d="M177.54,213.08a36,36,0,0,0-6.59-14.69c-.27.62-.11,1.23-.41,1.81L168,197.55c.34-.42,1-.53.9-1.18a2.49,2.49,0,0,0-1.17-2.05c-.67-.29-1.32.35-1.89.8a.67.67,0,0,0-.15.15c-.22.34-.42.25-.69,0a7.33,7.33,0,0,0-2.65-1.39,7.79,7.79,0,0,1,.71.91,13.71,13.71,0,0,0,4.12,4.45,3.89,3.89,0,0,1,.44.38A8.78,8.78,0,0,1,169,201.1a.29.29,0,0,1-.3,0,11.92,11.92,0,0,0-7.86.12c-.42.15-.56,0-.77-.27a51.93,51.93,0,0,0-4-4.06,1.13,1.13,0,0,1-.39-.88,4,4,0,0,1,1.08-2.54,4.48,4.48,0,0,0-2.63,1.06.55.55,0,0,1-.79,0,17.53,17.53,0,0,0-4.16-2,1.82,1.82,0,0,0-1-.1,10.65,10.65,0,0,0-4.91,2.57,12.24,12.24,0,0,0,3.4,1.63A19.23,19.23,0,0,0,151,197a3.56,3.56,0,0,1,2.4,1c1.33,1.23,2.64,2.47,3.84,3.82.1.11.3.2.18.37-.38-.12-.74-.25-1.11-.34a17.82,17.82,0,0,0-4.66-.38,31,31,0,0,1-5.27-.06c-2.18-.3-5.36-2.23-5.65-5.3,0-.38-.2-.46-.54-.5-.72-.08-1.43-.21-2.25-.34a11.65,11.65,0,0,1,5.11-3.55l-.9-.76c-.66-.55-.66-.56,0-1.07a21,21,0,0,1,8.82-3.54,2.57,2.57,0,0,1,1.71.29,43.36,43.36,0,0,1,5.6,3.42c.44.32.63.24.84-.23a12.36,12.36,0,0,0,.7-2.76,35.14,35.14,0,0,1,9,6.19c.09-.25,0-.41-.12-.58a17.57,17.57,0,0,1-1.65-5.35,1.07,1.07,0,0,0-.45-.7,18.55,18.55,0,0,0-5.28-3.21,24.78,24.78,0,0,0-4.51-1.42,8.76,8.76,0,0,1,.81,3.51l-.56-.59a17.7,17.7,0,0,0-3.79-3.21,2.42,2.42,0,0,0-1.06-.41,34.89,34.89,0,0,0-13.67,1.61,26.71,26.71,0,0,0-4.64,1.93c2.23.39,4.13,2,4.42,3.69a5.84,5.84,0,0,0-1.92-1c-3.13-1-5.57.73-5.74,4a10.64,10.64,0,0,0,1.1,4.94,4.17,4.17,0,0,1-1.85-1.5,7.74,7.74,0,0,1-.83-7.17,32.88,32.88,0,0,0-10.37,12.08l3.61.58a29.13,29.13,0,0,0-4.7,7.85,26.22,26.22,0,0,0-2.27,8.84l5.8-1.75-.16.75c0,.24-.1.47-.14.71a40.21,40.21,0,0,0,0,11.38,22.65,22.65,0,0,0,1.77,6.52c.64,1.38.64,1.38,1.78.42A41.68,41.68,0,0,0,130,229.4c1.1-1.36,2.11-2.79,3.15-4.29a27.15,27.15,0,0,1,1.3,7.9,46,46,0,0,1-1.18,10.16.62.62,0,0,0,.39.83,25.09,25.09,0,0,0,4.43,1.72,11.58,11.58,0,0,1,2.19.58h7.66a4.73,4.73,0,0,1,1.57-.37,28.65,28.65,0,0,0,10.28-4.38c.35,1.32.7,2.59,1,3.87.09.38.18.48.55.23a26.25,26.25,0,0,0,10.32-12.57,28.2,28.2,0,0,0,1.63-7l2.77,3A31.33,31.33,0,0,0,177.54,213.08Zm-23.9,1.07c-.86-1.58-1.72-3.17-2.58-4.74-.15-.27-.27-.45.08-.71a26,26,0,0,1,8.2-4.4,1.74,1.74,0,0,1,1.72.26,11.69,11.69,0,0,0,3,1.62.55.55,0,0,1,.43.62c0,.6,0,1.2,0,2.09.52,1.44-.47,2.36-1.74,3.24a27.94,27.94,0,0,1-5,3c-.29.12-.58.23-.88.32C154.87,216.12,154.66,216,153.64,214.16Zm14.53,6.94a10.61,10.61,0,0,1-3.63,4.49,15.55,15.55,0,0,0-.58-4.87,12.66,12.66,0,0,1-4.65,2.53c-.46.15-.72.1-1-.37-.55-1.09-1.16-2.16-1.74-3.24-.11-.2-.33-.43.14-.5a11.76,11.76,0,0,0,4.49-2,3.49,3.49,0,0,0,.77-.54c1.3-1.45,3-1.36,4.72-1.35a.57.57,0,0,1,.54.27c.1.16.23.31.34.46A4.52,4.52,0,0,1,168.17,221.1Zm2.65-6.61c-.07.18-.15.35-.24.52s-.07.06-.18.15a13.49,13.49,0,0,0-2.83-3.84,1.36,1.36,0,0,1-.44-1.08c0-1.11,0-2.22,0-3.32a.75.75,0,0,1,.41-.74c.81-.51,1.59-1.08,2.37-1.64.24-.17.37-.26.5.1C171.62,207.88,172.13,211.14,170.82,214.49Z"/><text class="cls-5" transform="translate(237.44 230.07) rotate(0.29) scale(1.07 1)">P<tspan class="cls-6" x="9.13" y="0">r</tspan><tspan x="14.99" y="0">emier</tspan><tspan x="0" y="15.76">League</tspan></text><text class="cls-7" transform="matrix(0.96, 0, 0, 1, 167.3, 282.02)"> <tspan class="cls-8" x="13.35" y="0">F</tspan><tspan class="cls-9" x="32.07" y="0">an</tspan><tspan class="cls-9"><tspan x="0" y="35.16">Si</tspan><tspan class="cls-10" x="32.31" y="35.16">t</tspan><tspan class="cls-11" x="44.91" y="35.16">e</tspan></tspan></text><text class="cls-12" transform="translate(69.88 304.82) rotate(0.29) scale(0.9 1)">T<tspan class="cls-13" x="8.01" y="0">eams</tspan></text><text class="cls-14" transform="translate(198.11 414.78) rotate(0.29) scale(0.9 1)">T<tspan class="cls-13" x="8" y="0">able</tspan></text><text class="cls-12" transform="translate(249.84 320.3) rotate(0.29) scale(0.9 1)">T<tspan class="cls-13" x="8.01" y="0">eam of</tspan><tspan class="cls-15"><tspan x="0" y="15.09">t</tspan><tspan class="cls-16" x="6.13" y="15.09">he </tspan><tspan class="cls-17" x="32.91" y="15.09">w</tspan><tspan class="cls-13" x="49.98" y="15.09">eek</tspan></tspan></text></g><g id="Layer_14" data-name="Layer 14" class="cls-18"><polygon class="cls-19" points="681.09 202.88 679.71 186.21 577.79 186.21 576.41 202.88 681.09 202.88"/><path class="cls-19" d="M665,232.65H590C591,260.84,664.89,260.46,665,232.65Z"/><path class="cls-19" d="M697.25,409.07h105L757.35,186.21h-53l3.85,46.45H665c-.12,27.81-74,28.19-75,0H545.13L549,186.21H497.28L452.34,409.07H556.56C573.75,361.78,680.07,361.72,697.25,409.07Z"/><path class="cls-19" d="M545.13,409.07H701.25"/><path class="cls-19" d="M590,232.65c0-.19,0-.39,0-.58,0,.2,0,.39,0,.58h75s0,0,0-.07,0,0,0,.07h43.17l-3.85-46.45H679.71l1.38,16.67H576.41l1.38-16.67H549l-3.85,46.45Z"/></g><g id="Layer_15" data-name="Layer 15"><polygon class="cls-20" points="650.51 195.28 650.51 170.11 628.77 157.58 606.99 170.11 606.99 195.28 628.77 207.87 650.51 195.28"/><polygon class="cls-20" points="612.01 258.85 612.01 233.68 590.27 221.15 568.49 233.68 568.49 258.85 590.27 271.43 612.01 258.85"/><polygon class="cls-20" points="686.27 258.85 686.27 233.68 664.54 221.15 642.75 233.68 642.75 258.85 664.54 271.43 686.27 258.85"/><polygon class="cls-20" points="760.54 258.85 760.54 233.68 738.81 221.15 717.02 233.68 717.02 258.85 738.81 271.43 760.54 258.85"/><polygon class="cls-20" points="539.11 322.41 539.11 297.25 517.37 284.71 495.59 297.25 495.59 322.41 517.37 335 539.11 322.41"/><polygon class="cls-20" points="613.38 322.41 613.38 297.25 591.64 284.71 569.86 297.25 569.86 322.41 591.64 335 613.38 322.41"/><polygon class="cls-20" points="687.64 322.41 687.64 297.25 665.91 284.71 644.12 297.25 644.12 322.41 665.91 335 687.64 322.41"/><polygon class="cls-20" points="761.91 322.41 761.91 297.25 740.17 284.71 718.39 297.25 718.39 322.41 740.17 335 761.91 322.41"/><polygon class="cls-20" points="613.38 391.41 613.38 366.25 591.64 353.71 569.86 366.25 569.86 391.41 591.64 404 613.38 391.41"/><polygon class="cls-20" points="687.64 391.41 687.64 366.25 665.91 353.71 644.12 366.25 644.12 391.41 665.91 404 687.64 391.41"/></g><g id="Layer_16" data-name="Layer 16"><polygon class="cls-20" points="537.74 258.85 537.74 233.68 516 221.15 494.22 233.68 494.22 258.85 516 271.43 537.74 258.85"/><text class="cls-21" transform="matrix(0.96, 0, 0, 1, 494.22, 250.43)"> <tspan class="cls-22" x="3.32" y="0">P</tspan><tspan class="cls-23" x="8.68" y="0">.</tspan><tspan class="cls-24" x="11.41" y="0">P</tspan><tspan class="cls-25" x="17.23" y="0">ogba</tspan></text><text class="cls-26" transform="matrix(0.96, 0, 0, 1, 497.22, 256.73)">M<tspan class="cls-27" x="4.08" y="0">an</tspan><tspan class="cls-28" x="9.44" y="0">c</tspan><tspan class="cls-29" x="11.4" y="0">he</tspan><tspan class="cls-30" x="16.54" y="0">s</tspan><tspan class="cls-31" x="18.53" y="0">t</tspan><tspan class="cls-27" x="19.93" y="0">er </tspan><tspan class="cls-32" x="25.43" y="0">U</tspan><tspan class="cls-29" x="28.73" y="0">ni</tspan><tspan class="cls-31" x="32.39" y="0">t</tspan><tspan class="cls-29" x="33.79" y="0">ed</tspan></text><text class="cls-33" transform="matrix(0.96, 0, 0, 1, 566.22, 250.85)"> <tspan class="cls-34" x="3.04" y="0">O</tspan><tspan class="cls-35" x="10.66" y="0">t</tspan><tspan class="cls-34" x="13.52" y="0">amendi</tspan></text><text class="cls-26" transform="matrix(0.96, 0, 0, 1, 571.49, 256.8)">M<tspan class="cls-27" x="4.08" y="0">an</tspan><tspan class="cls-28" x="9.44" y="0">c</tspan><tspan class="cls-29" x="11.4" y="0">he</tspan><tspan class="cls-30" x="16.54" y="0">s</tspan><tspan class="cls-31" x="18.53" y="0">t</tspan><tspan class="cls-27" x="19.93" y="0">er </tspan><tspan class="cls-32" x="25.43" y="0">U</tspan><tspan class="cls-29" x="28.73" y="0">ni</tspan><tspan class="cls-31" x="32.39" y="0">t</tspan><tspan class="cls-29" x="33.79" y="0">ed</tspan></text></g></svg>