<svg xmlns="http://www.w3.org/2000/svg" viewBox="0 0 164.56 171.59"><defs><style>.cls-1{fill:#fff;}.cls-2{fill:#3c245b;}.cls-3{fill:#3c245a;}</style></defs><title>Asset 1</title><g id="Layer_2" data-name="Layer 2"><g id="Layer_1-2" data-name="Layer 1"><path class="cls-1" d="M111.32,159.59c-5,3.54-10,7-14.86,10.67a5.5,5.5,0,0,1-5.72.92q-31.5-10.37-63.1-20.46A5,5,0,0,1,24,147.05Q12.29,109.85.32,72.74a4.73,4.73,0,0,1,1-5A220.78,220.78,0,0,1,55.57,19.89,216.36,216.36,0,0,1,96,.28a3.42,3.42,0,0,1,3.67.64q31.49,23.24,63.05,46.4a4,4,0,0,1,1.83,3.63q-.09,34.13,0,68.27a3.86,3.86,0,0,1-1.89,3.58c-10.81,7.67-21.57,15.41-32.34,23.14-2.29,1.65-4.58,3.31-6.86,5"/><path class="cls-2" d="M56.81,36.86A39.78,39.78,0,0,1,66,42.51L64.16,30.79l4.3,2.88C71,35.38,73.51,37.07,76,38.8c.62.42.87.46,1.14-.36,1.18-3.54,2.44-7.05,3.67-10.58.08-.24.18-.47.33-.84l1.51,2.34c1.66,2.6,3.35,5.18,5,7.81.5.82.77.73,1.35.09,2.85-3.11,5.74-6.18,8.6-9.27.27-.29.49-.61.74-.92l.26.12.84,11.62a41.09,41.09,0,0,1,7.25-7.27.39.39,0,0,1,.08.52A38.08,38.08,0,0,0,104,43.55c-.08.79-.21,1.09-1.15.86A53.57,53.57,0,0,0,64.15,49c-.73.38-.95.32-1.22-.47a41.57,41.57,0,0,0-4.88-10C57.7,38,57.31,37.52,56.81,36.86Z"/><path class="cls-3" d="M131.88,95.62c-1.47-8.18-5.09-15.39-10-22.16-.4.93-.17,1.85-.61,2.73l-3.8-4c.51-.64,1.51-.79,1.36-1.79-.19-1.26-.64-2.61-1.77-3.09s-2,.53-2.85,1.21a1,1,0,0,0-.23.23c-.33.52-.63.37-1,.05a11.07,11.07,0,0,0-4-2.1,11.76,11.76,0,0,1,1.08,1.37,20.69,20.69,0,0,0,6.21,6.71,5.88,5.88,0,0,1,.66.57A13.24,13.24,0,0,1,119,77.53a.43.43,0,0,1-.45,0,18,18,0,0,0-11.85.19c-.64.23-.85-.07-1.16-.41a78.35,78.35,0,0,0-6.05-6.12,1.7,1.7,0,0,1-.59-1.32c-.06-1.48.72-2.61,1.63-3.84a6.76,6.76,0,0,0-4,1.6.83.83,0,0,1-1.2,0,26.45,26.45,0,0,0-6.27-3,2.75,2.75,0,0,0-1.49-.14,16.07,16.07,0,0,0-7.41,3.88,18.48,18.48,0,0,0,5.12,2.46c2.15.58,4.34.29,6.51.39a5.37,5.37,0,0,1,3.62,1.44c2,1.86,4,3.73,5.8,5.77.14.16.45.29.27.57-.58-.18-1.12-.38-1.67-.51a26.89,26.89,0,0,0-7-.57,46.71,46.71,0,0,1-7.95-.09c-3.29-.45-8.08-3.37-8.52-8-.05-.58-.31-.69-.81-.75-1.09-.12-2.16-.32-3.4-.51a17.57,17.57,0,0,1,7.71-5.36l-1.36-1.15c-1-.84-1-.85,0-1.61a31.63,31.63,0,0,1,13.31-5.35,3.88,3.88,0,0,1,2.59.44,65.44,65.44,0,0,1,8.45,5.15c.67.48,1,.36,1.26-.34a18.66,18.66,0,0,0,1.06-4.17,53,53,0,0,1,13.59,9.34c.14-.37-.07-.61-.18-.87a26.51,26.51,0,0,1-2.49-8.07,1.61,1.61,0,0,0-.69-1.06,28,28,0,0,0-8-4.84,37.39,37.39,0,0,0-6.8-2.14,13.21,13.21,0,0,1,1.22,5.29L101,53a26.71,26.71,0,0,0-5.72-4.84,3.66,3.66,0,0,0-1.6-.62A52.65,52.65,0,0,0,73.07,50a40.31,40.31,0,0,0-7,2.92c3.36.6,6.23,3,6.67,5.56A8.81,8.81,0,0,0,69.84,57c-4.72-1.49-8.4,1.1-8.66,6a16.06,16.06,0,0,0,1.66,7.45,6.28,6.28,0,0,1-2.78-2.26c-2.37-3.36-2.45-7-1.25-10.82A49.61,49.61,0,0,0,43.15,75.59l5.45.88a44,44,0,0,0-7.09,11.84,39.56,39.56,0,0,0-3.43,13.34L46.83,99c-.09.45-.17.79-.23,1.13s-.15.71-.21,1.07a60.67,60.67,0,0,0,0,17.17,34.19,34.19,0,0,0,2.67,9.83c1,2.09,1,2.08,2.68.63a62.9,62.9,0,0,0,8.31-8.62c1.66-2.05,3.18-4.21,4.76-6.48a41,41,0,0,1,2,11.92A69.4,69.4,0,0,1,65.05,141a.93.93,0,0,0,.58,1.25,37.85,37.85,0,0,0,6.68,2.59,17.48,17.48,0,0,1,3.3.87H87.18a7.14,7.14,0,0,1,2.37-.55,43.23,43.23,0,0,0,15.52-6.62c.53,2,1,3.91,1.52,5.84.14.57.27.73.83.35,7.09-4.77,12.5-10.9,15.57-19a42.56,42.56,0,0,0,2.46-10.52l4.18,4.5A47.28,47.28,0,0,0,131.88,95.62ZM95.82,97.24c-1.3-2.39-2.59-4.78-3.9-7.16-.22-.41-.4-.69.12-1.07,3.82-2.79,7.76-5.34,12.38-6.64a2.63,2.63,0,0,1,2.6.4,17.64,17.64,0,0,0,4.59,2.45.83.83,0,0,1,.66.94c0,.91,0,1.82,0,3.15.78,2.17-.71,3.57-2.63,4.88a42.16,42.16,0,0,1-7.52,4.54c-.43.18-.88.35-1.32.49C97.67,100.19,97.35,100.06,95.82,97.24Zm21.92,10.47a16,16,0,0,1-5.48,6.77,23.46,23.46,0,0,0-.87-7.35,19.11,19.11,0,0,1-7,3.81c-.7.23-1.09.16-1.45-.56-.83-1.65-1.75-3.26-2.63-4.88-.16-.3-.49-.65.2-.75,2.55-.38,4.66-1.75,6.77-3.09a5.27,5.27,0,0,0,1.16-.81c2-2.19,4.55-2.06,7.13-2a.86.86,0,0,1,.81.41c.16.24.34.47.52.7A6.82,6.82,0,0,1,117.74,107.71Zm4-10c-.1.27-.23.53-.36.79,0,.06-.11.09-.27.23A20.35,20.35,0,0,0,116.83,93a2.05,2.05,0,0,1-.67-1.63c.05-1.67,0-3.34,0-5a1.13,1.13,0,0,1,.62-1.12c1.22-.78,2.4-1.63,3.58-2.48.36-.26.56-.39.76.15C122.95,87.76,123.7,92.69,121.74,97.73Z"/></g></g></svg>