<svg xmlns="http://www.w3.org/2000/svg" viewBox="0 0 726.31 402.03"><defs><style>.cls-1{fill:#3c235a;}</style></defs><title>Asset 4</title><g id="Layer_2" data-name="Layer 2"><g id="Layer_13" data-name="Layer 13"><path class="cls-1" d="M346.42,70.45c17.55-22.48,36-22.06,59.29.93,9.31-14.11,22.79-18.93,38.94-16.66,17.55,2.46,30.28,16.3,32.47,34.34,1.31,10.8.58,21.64.68,32.45.13,13.66-.14,27.33.14,41,.08,4.11-1.26,5-5.06,4.86-6.65-.29-13.34-.34-20,0-4.37.23-5.91-.78-5.83-5.58.31-19.15.15-38.32.1-57.48a36.73,36.73,0,0,0-.63-7.93c-2-9.07-7.95-13.49-17.22-13.22S414.4,88.3,412.95,97.43a58.11,58.11,0,0,0-.62,8.95c-.05,18.83-.11,37.65,0,56.48,0,3.36-.68,4.66-4.33,4.51-7.32-.29-14.66-.26-22,0-3.29.11-4.18-.88-4.15-4.15.15-19.33.09-38.65.06-58a43.28,43.28,0,0,0-.41-7c-1.78-10.77-8-15.72-18.65-15-9.42.6-15.44,6.93-15.74,17.25s-.1,20.66-.11,31c0,10.66-.11,21.33.07,32,.05,3-.74,4-3.88,3.92-7.66-.23-15.33-.17-23,0-2.68.05-3.83-.55-3.82-3.54q.13-51.73,0-103.46c0-2.34.66-3.25,3.11-3.21q10.49.19,21,0c2.36,0,3.17,1,3.55,3.13C344.68,63.51,345.56,66.73,346.42,70.45Z"/><path class="cls-1" d="M.13,265.88c0-25.49.08-51-.09-76.47,0-3.65.73-4.93,4.61-4.77,7.82.33,15.66.31,23.48,0,3.84-.15,4.7,1.12,4.69,4.8-.13,40.65,0,81.3-.18,122,0,4.48,1,5.87,5.69,5.8,20-.28,40,0,60-.2,3.66,0,5.28.57,5.06,4.77-.39,7.48-.22,15-.05,22.48.06,2.77-.69,3.74-3.61,3.73-32-.09-64-.14-96,0-4.07,0-3.64-2.11-3.64-4.67Q.15,304.62.13,265.88Z"/><path class="cls-1" d="M603.06,274c-.51,9.56.87,21.24-.79,32.85-3.48,24.32-20.45,40.87-45.05,43.39-16.44,1.68-31.89-1.08-45-12.07-12-10-16.48-23.61-16.84-38.57-.46-19.48-.09-39-.23-58.45,0-3.07,1.26-3.54,3.86-3.5,7.49.12,15,.22,22.48,0,3.55-.12,4.48,1,4.44,4.49-.17,16.32-.08,32.64-.07,49,0,2.66,0,5.33.16,8,.77,14,8.69,22.11,21.72,22.41,13.76.31,23.6-7.91,24.27-21.66.75-15.29.29-30.63.54-45.95.09-5.26-2.37-12.29,1.1-15.29,3-2.59,9.83-.78,15-.86,3.33-.05,6.68.21,10-.07s4.62.68,4.52,4.32C602.89,251.91,603.06,261.9,603.06,274Z"/><path class="cls-1" d="M153.44,72.75c7.79-13,18.47-18.08,32.47-16.53,3,.33,4.35,1.15,4.25,4.53-.26,8.44-.08,16.9-.08,25.57-6-1.28-11.47-1.7-16.89-.66-11.93,2.27-18.71,11.41-18.88,25.74-.2,17-.16,34,0,50.95,0,3.71-.64,5.26-4.8,5-7.31-.38-14.65-.22-22,0-2.79.07-3.68-.74-3.67-3.61q.13-51.45,0-102.9c0-2.67.52-3.83,3.51-3.73,6.49.22,13,.21,19.48,0,2.84-.09,3.77,1.09,4.17,3.61C151.63,64.45,152.5,68.14,153.44,72.75Z"/><path class="cls-1" d="M689.29,72.76c7.88-13.22,18.76-18.22,32.93-16.47,2.49.31,3.91.9,3.84,3.89q-.28,11.49,0,23c.07,3-1,3.07-3.55,2.58a34.3,34.3,0,0,0-13.9,0c-11.64,2.56-18.25,11.42-18.41,25.11-.19,17-.27,34,.07,51,.09,4.81-1.48,5.75-5.81,5.54-7-.34-14-.2-21,0-2.72.06-3.78-.59-3.77-3.55q.14-51.71,0-103.43c0-2.25.46-3.3,3-3.24,6.83.15,13.66.17,20.48,0,2.46-.07,3.17,1.1,3.56,3.09C687.53,64.1,688.33,68,689.29,72.76Z"/><path class="cls-1" d="M492.94,112.39c0-17,.11-34-.09-51,0-3.57,1-4.47,4.44-4.35,7.32.27,14.65.19,22,0,2.82-.06,4.06.37,4.05,3.7q-.2,51.46,0,102.91c0,2.86-.84,3.68-3.66,3.62-7.66-.18-15.32-.24-23,0-3.27.11-3.8-1.13-3.78-4C493,146.36,492.94,129.37,492.94,112.39Z"/><path class="cls-1" d="M527.34,23.75a18.37,18.37,0,0,1-18.64,18.6c-10.76.08-19.24-8.22-19.12-18.71a18.88,18.88,0,0,1,37.76.11Z"/><path class="cls-1" d="M479.6,238.46c-2.83-2.73-8.89-.73-13.52-.77-12.34-.09-12.34,0-15,11.86a8,8,0,0,1-.56,1.28,7.72,7.72,0,0,1-1.35-1c-10.32-12.12-23.67-15.58-38.76-12.88-37,6.61-57.2,44-43,78.76,14.7,35.89,59.45,45.31,83,22.23,0,3.25.06,5.54,0,7.82-.5,15.8-9.47,25-25.32,26.67-14.43,1.52-27-2.41-37.8-12-2.38-2.11-3.45-2-5.18.59-3.8,5.66-7.66,11.32-12,16.59-2.61,3.19-1.72,4.84,1,7.13,17.38,14.77,37.59,19.23,59.72,16.44,29.42-3.71,48.64-24,49.34-53.4.76-31.8.41-63.63.41-95.45C480.58,247.62,482.72,241.47,479.6,238.46Zm-55.92,83a28.28,28.28,0,0,1-28.85-28.63c0-16.46,12.14-29,28.39-29.16s29,12.67,28.92,29.2A28.42,28.42,0,0,1,423.68,321.44Z"/><path class="cls-1" d="M111.38,39.43C105.62,16.83,85.43,1.46,60.32.5c-19-.72-38-.22-56.93-.5C-.52-.06.13,2.22.13,4.47q0,39.46,0,78.93c0,26.14.14,52.29-.13,78.43-.05,4.8,1.47,5.75,5.81,5.55,7.31-.34,14.66-.29,22,0,3.81.15,5.13-.78,5.06-4.87-.26-14.81.12-29.64-.23-44.45-.11-4.79,1.46-5.82,5.85-5.6a191.14,191.14,0,0,0,19.47-.1C101,110.07,120.66,75.86,111.38,39.43ZM60.85,80.24c-8.55,2-17.26.86-25.9,1.16-2.79.1-2.18-1.88-2.18-3.41,0-7.33,0-14.66,0-22,0-7.16,0-14.33,0-21.49,0-1.53-.59-3.62,2.13-3.53,9,.29,18-1.06,26.86,1.3C73.58,35.41,80.24,44.42,79.91,56.5S72.47,77.52,60.85,80.24Z"/><path class="cls-1" d="M351.54,250.34c0-12.68,0-12.76-12.63-12.64-4.61,0-10.33-1.92-13.51.88-2.67,2.35-2.49,7.94-3.6,12.09,0,.09-.25.12-.77.35-10.68-14-25.79-16.9-41.91-14-40.57,7.29-59.55,54.54-36.09,88.77,14.07,20.53,38,29.64,59.09,22.57,7.75-2.59,14-7.37,19.38-14.15,1,3.83,2,6.8,2.38,9.86.37,3.3,2,4,5,3.92,5.83-.2,11.68-.31,17.49,0,4.1.24,5.34-.94,5.32-5.18C351.45,312,351.54,281.17,351.54,250.34Zm-58,71.11c-16.32,0-28.63-12.42-28.58-28.85,0-16.59,12.21-28.92,28.55-29,16,0,28.49,12.76,28.45,29.18A28.27,28.27,0,0,1,293.54,321.45Z"/><path class="cls-1" d="M719.77,303.3c4.67.05,6.86-1.1,6.49-5.87v-9.08c-1.18-17.49-7.78-32.27-22.11-42.87-18-13.33-43.73-14.13-63-2.3-20,12.26-30.69,35.77-26.7,59.71,3.87,23.22,17.21,38.9,39.82,45.13,24.14,6.65,46.12,1.73,64.5-16.2,1.94-1.89,1.12-2.94-.36-4.41-4.61-4.58-9.26-9.12-13.61-13.94-2.11-2.34-3.28-2.12-5.5-.07-8.25,7.63-18.21,10.65-29.37,10-12-.68-21.94-8.73-24.52-20.26h5.45C673.81,303.17,696.79,303,719.77,303.3ZM646.51,277c3.36-9.17,13.94-15.73,25.2-15.45,10.86.27,20.54,7,23.64,16.17.91,2.7.17,3.14-2.28,3.11-7.49-.08-15,0-22.48,0-7.16,0-14.33-.11-21.48,0C645.87,281,645.5,279.81,646.51,277Z"/><path class="cls-1" d="M195.71,242.44c-19.1-11.3-45.17-10-62.58,3.56-20.4,15.84-26.9,37.15-21.41,61.78,5,22.44,19.93,36.21,42.11,41.12,23.11,5.11,43.88-.14,61.12-17.1,2-1.92,1-3-.43-4.41-4.6-4.59-9.27-9.11-13.61-13.93-2.14-2.37-3.31-2.05-5.5,0-8.4,7.78-18.55,10.76-29.87,10-11.79-.83-21.76-9.14-23.91-20.22h22c18,0,36,0,54,0,1.79,0,4.17.9,4.5-2.35C224.31,278.92,218,255.65,195.71,242.44Zm-6.85,38.44c-7.32-.16-14.65-.05-22,0-7,0-14-.1-21,0-3.29.07-4.63-.41-3.09-4.14,3.8-9.14,13.68-15.34,24.88-15.18,10.66.16,20,6.43,23.58,15.52C192.36,279.87,192.2,281,188.86,280.89Z"/><path class="cls-1" d="M625.15,64.49c-18.63-13.71-45-13.71-64.78-.56-19.4,12.88-29.24,38.38-23.78,61.91,5.15,22.18,18.92,36.5,40.81,42,23.61,5.92,44.84.73,62.66-16.5,2-1.94,1.42-3.05-.27-4.7-4.54-4.42-9-8.9-13.3-13.56-2-2.22-3.23-2.66-5.75-.32-9,8.34-19.84,11.32-31.86,9.64-9.54-1.34-16.56-6.5-20.8-15.28-1.53-3.16-1.92-5,2.87-4.83,12,.31,24,.1,36,.1,12.17,0,24.33-.07,36.5.06,2.6,0,3.86-.51,4.09-3.35C649.28,97.08,643.56,78,625.15,64.49Zm-11.42,35.86c-7.16-.18-14.32-.06-21.49-.06-7.33,0-14.66-.08-22,0-2.68,0-3.5-.36-2.47-3.31,3.29-9.37,12.74-15.73,24.26-15.93,11.33-.19,21.06,6,24.62,15.37C617.92,99.77,616.91,100.42,613.73,100.35Z"/><path class="cls-1" d="M278.18,61.91c-19.91-11.86-46.41-9.84-64.64,4.72-18.56,14.83-26.17,41.16-18.67,64.53,7.42,23.13,26.39,37.24,53.16,38.75,18.47,1,34.67-4.89,48.15-17.83,2.14-2.05,2.84-3.41.21-5.81a183.25,183.25,0,0,1-13.3-13.53c-2.13-2.39-3.26-2-5.41,0-9,8.32-19.82,11.35-31.81,9.69-9.72-1.35-16.86-6.55-21-15.63-1.42-3.09-1.54-4.57,2.74-4.48,12,.25,24,.09,36,.09h37c1.79,0,3.45.39,3.79-2.48C306.68,99.37,300.4,75.14,278.18,61.91Zm-6.94,38.43c-7.49-.15-15,0-22.48,0-7.16,0-14.32-.05-21.48,0-2.43,0-3.75-.06-2.67-3.24,3.2-9.43,13-15.94,24.72-16,11.29-.06,21.1,6.38,24.33,15.76C274.56,99.47,274.19,100.4,271.24,100.34Z"/></g></g></svg>