<svg xmlns="http://www.w3.org/2000/svg" viewBox="0 0 164.56 171.59"><defs><style>.cls-1{fill:#fff;}.cls-2{font-size:28.51px;fill:#3c235a;font-family:Futura-Medium, Futura;letter-spacing:-0.06em;}.cls-3{letter-spacing:-0.06em;}</style></defs><title>Asset 2</title><g id="Layer_2" data-name="Layer 2"><g id="Layer_1-2" data-name="Layer 1"><path class="cls-1" d="M53.24,159.59c5,3.54,10,7,14.86,10.67a5.5,5.5,0,0,0,5.72.92q31.5-10.37,63.1-20.46a5,5,0,0,0,3.68-3.67q11.67-37.2,23.64-74.31a4.73,4.73,0,0,0-1-5A220.78,220.78,0,0,0,109,19.89,216.36,216.36,0,0,0,68.56.28a3.42,3.42,0,0,0-3.67.64Q33.39,24.16,1.84,47.32A4,4,0,0,0,0,50.94q.09,34.13,0,68.27a3.86,3.86,0,0,0,1.89,3.58c10.81,7.67,21.57,15.41,32.34,23.14,2.29,1.65,4.58,3.31,6.86,5"/><text class="cls-2" transform="translate(45.89 121.25) rotate(0.29) scale(1.07 1)">P<tspan class="cls-3" x="13.77" y="0">r</tspan><tspan x="22.61" y="0">emier</tspan><tspan x="0" y="23.78">League</tspan></text></g></g></svg>