<?xml version="1.0" encoding="utf-8"?>
<!-- Generator: Adobe Illustrator 21.0.0, SVG Export Plug-In . SVG Version: 6.00 Build 0)  -->
<svg version="1.1" id="Layer_1" xmlns="http://www.w3.org/2000/svg" xmlns:xlink="http://www.w3.org/1999/xlink" x="0px" y="0px"
	 viewBox="0 0 772.1 278.7" style="enable-background:new 0 0 772.1 278.7;" xml:space="preserve">
<style type="text/css">
	.st0{fill:#FFFFFF;}
	.st1{opacity:0.93;fill:#FFFFFF;enable-background:new    ;}
	.st2{opacity:0.85;fill:#FFFFFF;enable-background:new    ;}
	.st3{opacity:0.96;fill:#FFFFFF;enable-background:new    ;}
	.st4{opacity:0.91;fill:#FFFFFF;enable-background:new    ;}
	.st5{fill:#3C235A;}
	.st6{opacity:0.73;}
	.st7{fill:none;}
	.st8{fill:#28193A;}
	.st9{font-family:'Futura-Medium';}
	.st10{font-size:16px;}
</style>
<g id="Layer_1_1_">
	<g>
		<g>
			<polygon class="st0" points="140.6,81.1 140.6,30.5 96.9,5.2 53.1,30.5 53.1,81.1 96.9,106.3 			"/>
			<polygon class="st1" points="237,81.1 237,30.5 193.2,5.2 149.4,30.5 149.4,81.1 193.2,106.3 			"/>
			<polygon class="st0" points="333.4,81.1 333.4,30.5 289.6,5.2 245.8,30.5 245.8,81.1 289.6,106.3 			"/>
			<polygon class="st0" points="429.8,81.1 429.8,30.5 386,5.2 342.2,30.5 342.2,81.1 386,106.3 			"/>
			<polygon class="st2" points="526.1,81.1 526.1,30.5 482.4,5.2 438.6,30.5 438.6,81.1 482.4,106.3 			"/>
			<polygon class="st0" points="622.5,81.1 622.5,30.5 578.7,5.2 534.9,30.5 534.9,81.1 578.7,106.3 			"/>
			<polygon class="st2" points="189.2,165.7 189.2,115.2 145.4,89.9 101.6,115.2 101.6,165.7 145.4,191 			"/>
			<polygon class="st0" points="285.6,165.7 285.6,115.2 241.8,89.9 198,115.2 198,165.7 241.8,191 			"/>
			<polygon class="st1" points="382,165.7 382,115.2 338.2,89.9 294.4,115.2 294.4,165.7 338.2,191 			"/>
			<polygon class="st0" points="478.4,165.7 478.4,115.2 434.6,89.9 390.8,115.2 390.8,165.7 434.6,191 			"/>
			<polygon class="st0" points="574.7,165.7 574.7,115.2 530.9,89.9 487.1,115.2 487.1,165.7 530.9,191 			"/>
			<polygon class="st1" points="671.1,165.7 671.1,115.2 627.3,89.9 583.5,115.2 583.5,165.7 627.3,191 			"/>
			<polygon class="st0" points="140.6,249.7 140.6,199.1 96.9,173.9 53.1,199.1 53.1,249.7 96.9,275 			"/>
			<polygon class="st3" points="237,249.7 237,199.1 193.2,173.9 149.4,199.1 149.4,249.7 193.2,275 			"/>
			<polygon class="st0" points="333.4,249.7 333.4,199.1 289.6,173.9 245.8,199.1 245.8,249.7 289.6,275 			"/>
			<polygon class="st3" points="429.8,249.7 429.8,199.1 386,173.9 342.2,199.1 342.2,249.7 386,275 			"/>
			<polygon class="st0" points="526.1,249.7 526.1,199.1 482.4,173.9 438.6,199.1 438.6,249.7 482.4,275 			"/>
			<polygon class="st4" points="622.5,249.7 622.5,199.1 578.7,173.9 534.9,199.1 534.9,249.7 578.7,275 			"/>
			<polygon class="st4" points="92.1,165.7 92.1,115.2 48.3,89.9 4.5,115.2 4.5,165.7 48.3,191 			"/>
			<polygon class="st3" points="718.9,81 718.9,30.5 675.1,5.2 631.3,30.5 631.3,81 675.1,106.3 			"/>
			<polygon class="st0" points="767.5,165.7 767.5,115.1 723.7,89.9 679.9,115.1 679.9,165.7 723.7,191 			"/>
			<polygon class="st0" points="718.9,249.7 718.9,199.1 675.1,173.9 631.3,199.1 631.3,249.7 675.1,275 			"/>
		</g>
	</g>
	<g id="Layer_2">
		<rect x="-80.1" y="-176.2" class="st5" width="877.7" height="618.7"/>
	</g>
	<g id="bgword">
		<g>
			<g>
				<path d="M294.2,67.1c11.3-14.4,23.3-14.4,38.3,0.6c6.1-9.2,14.7-12.3,25.1-10.7c11.3,1.5,19.6,10.4,20.8,22.1
					c0.9,7,0.3,14.1,0.3,20.8c0,8.9,0,17.8,0,26.4c0,2.8-0.9,3.4-3.4,3.1c-4.3-0.3-8.6-0.3-12.9,0c-2.8,0-3.7-0.6-3.7-3.7
					c0.3-12.3,0-24.8,0-37.1c0-1.8,0-3.4-0.3-5.2c-1.2-5.8-5.2-8.6-11-8.6c-5.8,0.3-9.5,3.4-10.7,9.2c-0.3,1.8-0.3,4-0.3,5.8
					c0,12.3,0,24.2,0,36.5c0,2.1-0.3,3.1-2.8,3.1c-4.6-0.3-9.5-0.3-14.1,0c-2.1,0-2.8-0.6-2.8-2.8c0-12.6,0-25.1,0-37.4
					c0-1.5,0-3.1-0.3-4.6c-1.2-7-5.2-10.1-12-9.8c-6.1,0.3-10.1,4.6-10.1,11c-0.3,6.7,0,13.5,0,19.9c0,6.7,0,13.8,0,20.5
					c0,1.8-0.6,2.5-2.5,2.5c-4.9,0-9.8,0-14.7,0c-1.8,0-2.5-0.3-2.5-2.1c0-22.4,0-44.4,0-66.8c0-1.5,0.3-2.1,2.1-2.1
					c4.6,0,9.2,0,13.5,0c1.5,0,2.1,0.6,2.1,2.1C293,62.5,293.6,64.6,294.2,67.1z"/>
				<path d="M169.5,68.3c4.9-8.3,12-11.6,20.8-10.7c1.8,0.3,2.8,0.6,2.8,3.1c-0.3,5.5,0,11,0,16.5c-4-0.9-7.4-1.2-11-0.3
					c-7.7,1.5-12,7.4-12.3,16.5c0,11,0,22.1,0,32.8c0,2.5-0.3,3.4-3.1,3.4c-4.6-0.3-9.5,0-14.1,0c-1.8,0-2.5-0.6-2.5-2.5
					c0-22.1,0-44.4,0-66.5c0-1.8,0.3-2.5,2.1-2.5c4.3,0,8.3,0,12.6,0c1.8,0,2.5,0.6,2.8,2.5C168.3,63.1,168.9,65.5,169.5,68.3z"/>
				<path d="M515.8,68.6C521,60,528.1,56.9,537,57.9c1.5,0.3,2.5,0.6,2.5,2.5c0,4.9,0,9.8,0,14.7c0,1.8-0.6,1.8-2.1,1.5
					c-3.1-0.6-6.1-0.6-8.9,0c-7.7,1.5-11.6,7.4-12,16.2c0,11-0.3,22.1,0,32.8c0,3.1-0.9,3.7-3.7,3.7c-4.6-0.3-8.9,0-13.5,0
					c-1.8,0-2.5-0.3-2.5-2.1c0-22.4,0-44.4,0-66.8c0-1.5,0.3-2.1,1.8-2.1c4.3,0,8.9,0,13.2,0c1.5,0,2.1,0.6,2.5,2.1
					C514.6,62.8,515.2,65.2,515.8,68.6z"/>
				<path d="M388.9,94c0-11,0-22.1,0-32.8c0-2.5,0.6-2.8,2.8-2.8c4.6,0.3,9.5,0,14.1,0c1.8,0,2.8,0.3,2.8,2.5c0,22.1,0,44.4,0,66.5
					c0,1.8-0.6,2.5-2.5,2.5c-4.9,0-9.8,0-14.7,0c-2.1,0-2.5-0.6-2.5-2.5C388.9,116.1,388.9,105,388.9,94z"/>
				<path d="M411,36.7c0,6.7-5.2,12-12,12c-7,0-12.6-5.2-12.3-12c0-6.7,5.2-12,12-12C405.8,24.5,411,29.7,411,36.7z"/>
				<path d="M142.3,46.8c-3.7-14.7-16.9-24.5-33.1-25.1c-12.3-0.6-24.5,0-36.8-0.3c-2.5,0-2.1,1.5-2.1,2.8c0,16.9,0,34,0,50.9
					s0,33.7,0,50.6c0,3.1,0.9,3.7,3.7,3.7c4.6-0.3,9.5-0.3,14.1,0c2.5,0,3.4-0.6,3.4-3.1c-0.3-9.5,0-19.3,0-28.8
					c0-3.1,0.9-3.7,3.7-3.7c4.3,0.3,8.3,0.3,12.6,0C135.5,92.5,148.4,70.4,142.3,46.8z M109.8,73.2c-5.5,1.2-11,0.6-16.9,0.6
					c-1.8,0-1.5-1.2-1.5-2.1c0-4.6,0-9.5,0-14.1s0-9.2,0-13.8c0-0.9-0.3-2.5,1.5-2.1c5.8,0.3,11.6-0.6,17.5,0.9
					c7.7,2.1,12,8,11.6,15.6C121.7,65.8,117.1,71.3,109.8,73.2z"/>
				<path d="M474.4,63.1c-12-8.9-29.1-8.9-42-0.3c-12.6,8.3-19,24.8-15.3,40.1c3.4,14.4,12.3,23.6,26.4,27.3
					c15.3,3.7,29.1,0.6,40.5-10.7c1.2-1.2,0.9-1.8-0.3-3.1c-3.1-2.8-5.8-5.8-8.6-8.9c-1.2-1.5-2.1-1.8-3.7-0.3
					c-5.8,5.5-12.9,7.4-20.5,6.1c-6.1-0.9-10.7-4.3-13.5-9.8c-0.9-2.1-1.2-3.1,1.8-3.1c7.7,0.3,15.6,0,23.3,0c8,0,15.6,0,23.6,0
					c1.5,0,2.5-0.3,2.8-2.1C489.8,84.2,486.1,72,474.4,63.1z M466.8,86.4c-4.6,0-9.2,0-13.8,0c-4.6,0-9.5,0-14.1,0
					c-1.8,0-2.1-0.3-1.5-2.1c2.1-6.1,8.3-10.1,15.6-10.4c7.4,0,13.5,4,15.9,9.8C469.5,85.7,468.9,86.4,466.8,86.4z"/>
				<path d="M250.1,61.5c-12.9-7.7-30-6.4-41.7,3.1c-12,9.5-16.9,26.7-12,41.7s17.2,24.2,34.3,25.1c12,0.6,22.4-3.1,31.3-11.6
					c1.5-1.2,1.8-2.1,0-3.7c-3.1-2.8-5.8-5.8-8.6-8.9c-1.2-1.5-2.1-1.2-3.4,0c-5.8,5.5-12.9,7.4-20.5,6.1c-6.1-0.9-11-4.3-13.5-10.1
					c-0.9-2.1-0.9-3.1,1.8-2.8c7.7,0.3,15.6,0,23.3,0c8,0,15.9,0,23.9,0c1.2,0,2.1,0.3,2.5-1.5C268.5,85.7,264.5,69.8,250.1,61.5z
					 M245.5,86.4c-4.9,0-9.8,0-14.4,0c-4.6,0-9.2,0-13.8,0c-1.5,0-2.5,0-1.8-2.1c2.1-6.1,8.3-10.4,15.9-10.4c7.4,0,13.5,4,15.6,10.1
					C247.7,85.7,247.4,86.4,245.5,86.4z"/>
			</g>
			<g>
				<path d="M240.4,204.4c0-16.5,0-33.1,0-49.3c0-2.5,0.6-3.1,3.1-3.1c4.9,0.3,10.1,0.3,15.3,0c2.5,0,3.1,0.6,3.1,3.1
					c0,26.4,0,52.4,0,78.8c0,2.8,0.6,3.7,3.7,3.7c12.9-0.3,25.7,0,38.6,0c2.5,0,3.4,0.3,3.4,3.1c-0.3,4.9,0,9.8,0,14.4
					c0,1.8-0.3,2.5-2.5,2.5c-20.5,0-41.4,0-61.9,0c-2.8,0-2.5-1.2-2.5-3.1C240.4,237.8,240.4,220.9,240.4,204.4z"/>
				<path d="M630.2,209.6c-0.3,6.1,0.6,13.8-0.6,21.1c-2.1,15.6-13.2,26.4-29.1,27.9c-10.7,1.2-20.5-0.6-29.1-7.7
					c-7.7-6.4-10.7-15.3-10.7-24.8c-0.3-12.6,0-25.1,0-37.7c0-1.8,0.9-2.1,2.5-2.1c4.9,0,9.8,0,14.4,0c2.1,0,2.8,0.6,2.8,2.8
					c0,10.4,0,21.1,0,31.6c0,1.8,0,3.4,0,5.2c0.6,8.9,5.5,14.4,14.1,14.4c8.9,0.3,15.3-5.2,15.6-14.1c0.6-9.8,0.3-19.9,0.3-29.7
					c0-3.4-1.5-8,0.6-9.8c1.8-1.5,6.4-0.6,9.8-0.6c2.1,0,4.3,0,6.4,0c2.1-0.3,3.1,0.3,3.1,2.8C630.2,195.2,630.2,201.6,630.2,209.6z
					"/>
				<path d="M550.5,186.6c-1.8-1.8-5.8-0.6-8.9-0.6c-8,0-8,0-9.8,7.7c0,0.3-0.3,0.6-0.3,0.9c-0.3-0.3-0.6-0.3-0.9-0.6
					c-6.7-8-15.3-10.1-25.1-8.3c-23.9,4.3-37.1,28.5-27.9,50.9c9.5,23.3,38.3,29.4,53.6,14.4c0,2.1,0,3.7,0,4.9
					c-0.3,10.1-6.1,16.2-16.2,17.2c-9.2,0.9-17.5-1.5-24.5-7.7c-1.5-1.2-2.1-1.2-3.4,0.3c-2.5,3.7-4.9,7.4-7.7,10.7
					c-1.8,2.1-1.2,3.1,0.6,4.6c11.3,9.5,24.2,12.6,38.6,10.7c19-2.5,31.6-15.6,31.9-34.6c0.6-20.5,0.3-41.1,0.3-61.6
					C551.1,192.4,552.3,188.5,550.5,186.6z M514.3,240.3c-10.4,0-18.7-8-18.7-18.4c0-10.7,8-18.7,18.4-18.7s18.7,8.3,18.7,19
					C532.7,232,524.5,240.3,514.3,240.3z"/>
				<path d="M467.8,194.3c0-8.3,0-8.3-8.3-8.3c-3.1,0-6.7-1.2-8.6,0.6c-1.8,1.5-1.5,5.2-2.5,7.7c0,0-0.3,0-0.6,0.3
					c-7-9.2-16.5-11-27-9.2c-26.4,4.6-38.6,35.2-23.3,57.3c9.2,13.2,24.5,19.3,38.3,14.7c4.9-1.5,8.9-4.9,12.6-9.2
					c0.6,2.5,1.2,4.3,1.5,6.4s1.2,2.5,3.1,2.5c3.7,0,7.7-0.3,11.3,0c2.8,0.3,3.4-0.6,3.4-3.4C467.5,234.1,467.8,214.2,467.8,194.3z
					 M430.1,240.3c-10.4,0-18.4-8-18.4-18.7s8-18.7,18.4-18.7s18.4,8.3,18.4,19C448.5,232,440.5,240.3,430.1,240.3z"/>
				<path d="M705.6,228.6c3.1,0,4.3-0.6,4.3-3.7c0-1.8,0-4,0-5.8c-0.6-11.3-4.9-20.8-14.4-27.6c-11.6-8.6-28.2-9.2-40.8-1.5
					c-12.9,8-19.9,23-17.2,38.6c2.5,15,11,25.1,25.7,29.1c15.6,4.3,29.7,1.2,41.7-10.4c1.2-1.2,0.6-1.8-0.3-2.8
					c-3.1-3.1-6.1-5.8-8.9-8.9c-1.2-1.5-2.1-1.2-3.7,0c-5.2,4.9-11.6,6.7-19,6.4c-7.7-0.3-14.1-5.5-15.9-13.2c1.2,0,2.5,0,3.7,0
					C675.8,228.3,690.9,228.3,705.6,228.6z M658.4,211.4c2.1-5.8,8.9-10.1,16.2-10.1c7,0.3,13.2,4.6,15.3,10.4
					c0.6,1.8,0,2.1-1.5,2.1c-4.9,0-9.8,0-14.4,0s-9.2,0-13.8,0C657.8,214.2,657.5,213.3,658.4,211.4z"/>
				<path d="M366.9,189.1c-12.3-7.4-29.1-6.4-40.5,2.1c-13.2,10.1-17.5,23.9-13.8,39.8c3.4,14.4,12.9,23.3,27.3,26.7
					c15,3.4,28.5,0,39.5-11c1.2-1.2,0.6-1.8-0.3-2.8c-3.1-3.1-6.1-5.8-8.9-8.9c-1.5-1.5-2.1-1.2-3.7,0c-5.5,4.9-12,7-19.3,6.4
					c-7.7-0.6-14.1-5.8-15.3-13.2c4.9,0,9.5,0,14.1,0c11.6,0,23.3,0,34.9,0c1.2,0,2.8,0.6,2.8-1.5
					C385.3,212.7,381.4,197.7,366.9,189.1z M362.4,213.9c-4.6,0-9.5,0-14.1,0s-9.2,0-13.5,0c-2.1,0-3.1-0.3-2.1-2.8
					c2.5-5.8,8.9-9.8,15.9-9.8c6.7,0,12.9,4.3,15.3,10.1C364.8,213.3,364.5,213.9,362.4,213.9z"/>
			</g>
		</g>
	</g>
	<g id="box" class="st6">
		<polygon class="st0" points="140.6,80.7 140.6,30.1 96.9,4.9 53.1,30.1 53.1,80.7 96.9,106 		"/>
		<polygon class="st1" points="237,80.7 237,30.1 193.2,4.9 149.4,30.1 149.4,80.7 193.2,106 		"/>
		<polygon class="st0" points="333.4,80.7 333.4,30.1 289.6,4.9 245.8,30.1 245.8,80.7 289.6,106 		"/>
		<polygon class="st0" points="429.8,80.7 429.8,30.1 386,4.9 342.2,30.1 342.2,80.7 386,106 		"/>
		<polygon class="st2" points="526.1,80.7 526.1,30.1 482.4,4.9 438.6,30.1 438.6,80.7 482.4,106 		"/>
		<polygon class="st0" points="622.5,80.7 622.5,30.1 578.7,4.9 534.9,30.1 534.9,80.7 578.7,106 		"/>
		<polygon class="st2" points="189.2,165.4 189.2,114.8 145.4,89.5 101.6,114.8 101.6,165.4 145.4,190.7 		"/>
		<polygon class="st0" points="285.6,165.4 285.6,114.8 241.8,89.5 198,114.8 198,165.4 241.8,190.7 		"/>
		<polygon class="st1" points="382,165.4 382,114.8 338.2,89.5 294.4,114.8 294.4,165.4 338.2,190.7 		"/>
		<polygon class="st0" points="478.4,165.4 478.4,114.8 434.6,89.5 390.8,114.8 390.8,165.4 434.6,190.7 		"/>
		<polygon class="st0" points="574.7,165.4 574.7,114.8 530.9,89.5 487.1,114.8 487.1,165.4 530.9,190.7 		"/>
		<polygon class="st1" points="671.1,165.4 671.1,114.8 627.3,89.5 583.5,114.8 583.5,165.4 627.3,190.7 		"/>
		<polygon class="st0" points="140.6,249.4 140.6,198.8 96.9,173.5 53.1,198.8 53.1,249.4 96.9,274.7 		"/>
		<polygon class="st3" points="237,249.4 237,198.8 193.2,173.5 149.4,198.8 149.4,249.4 193.2,274.7 		"/>
		<polygon class="st0" points="333.4,249.4 333.4,198.8 289.6,173.5 245.8,198.8 245.8,249.4 289.6,274.7 		"/>
		<polygon class="st3" points="429.8,249.4 429.8,198.8 386,173.5 342.2,198.8 342.2,249.4 386,274.7 		"/>
		<polygon class="st0" points="526.1,249.4 526.1,198.8 482.4,173.5 438.6,198.8 438.6,249.4 482.4,274.7 		"/>
		<polygon class="st4" points="622.5,249.4 622.5,198.8 578.7,173.5 534.9,198.8 534.9,249.4 578.7,274.7 		"/>
		<polygon class="st4" points="92.1,165.4 92.1,114.8 48.3,89.5 4.5,114.8 4.5,165.4 48.3,190.7 		"/>
		<polygon class="st3" points="718.9,80.7 718.9,30.1 675.1,4.9 631.3,30.1 631.3,80.7 675.1,106 		"/>
		<polygon class="st0" points="767.5,165.4 767.5,114.8 723.7,89.5 679.9,114.8 679.9,165.4 723.7,190.7 		"/>
		<polygon class="st0" points="718.9,249.4 718.9,198.8 675.1,173.5 631.3,198.8 631.3,249.4 675.1,274.6 		"/>
	</g>
</g>
<g id="name">
	<rect x="53.1" y="42.4" class="st7" width="87.5" height="45.1"/>
	<text transform="matrix(1 0 0 1 56.0106 55.5833)" class="st8 st9 st10">Manchester</text>
	<text transform="matrix(1 0 0 1 74.0106 70.5833)" class="st8 st9 st10">United</text>
	<rect x="149.4" y="42.4" class="st7" width="87.5" height="45.1"/>
	<text transform="matrix(1 0 0 1 152.3606 55.5833)" class="st8 st9 st10">Manchester</text>
	<text transform="matrix(1 0 0 1 170.3606 70.5833)" class="st8 st9 st10">United</text>
	<rect x="245.8" y="42.4" class="st7" width="87.5" height="45.1"/>
	<text transform="matrix(1 0 0 1 248.7106 55.5833)" class="st8 st9 st10">Manchester</text>
	<text transform="matrix(1 0 0 1 266.7106 70.5833)" class="st8 st9 st10">United</text>
	<rect x="342.1" y="42.4" class="st7" width="87.5" height="45.1"/>
	<text transform="matrix(1 0 0 1 345.0606 55.5833)" class="st8 st9 st10">Manchester</text>
	<text transform="matrix(1 0 0 1 363.0606 70.5833)" class="st8 st9 st10">United</text>
	<rect x="438.5" y="42.4" class="st7" width="87.5" height="45.1"/>
	<text transform="matrix(1 0 0 1 441.4106 55.5833)" class="st8 st9 st10">Manchester</text>
	<text transform="matrix(1 0 0 1 459.4106 70.5833)" class="st8 st9 st10">United</text>
	<rect x="534.8" y="42.4" class="st7" width="87.5" height="45.1"/>
	<text transform="matrix(1 0 0 1 537.7606 55.5833)" class="st8 st9 st10">Manchester</text>
	<text transform="matrix(1 0 0 1 555.7606 70.5833)" class="st8 st9 st10">United</text>
	<rect x="631.2" y="42.4" class="st7" width="87.5" height="45.1"/>
	<text transform="matrix(1 0 0 1 634.1107 55.5833)" class="st8 st9 st10">Manchester</text>
	<text transform="matrix(1 0 0 1 652.1107 70.5833)" class="st8 st9 st10">United</text>
	<rect x="5.5" y="126.9" class="st7" width="87.5" height="45.1"/>
	<text transform="matrix(1 0 0 1 8.4107 140.0893)" class="st8 st9 st10">Manchester</text>
	<text transform="matrix(1 0 0 1 26.4107 155.0893)" class="st8 st9 st10">United</text>
	<rect x="101.8" y="126.9" class="st7" width="87.5" height="45.1"/>
	<text transform="matrix(1 0 0 1 104.7606 140.0893)" class="st8 st9 st10">Manchester</text>
	<text transform="matrix(1 0 0 1 122.7606 155.0893)" class="st8 st9 st10">United</text>
	<rect x="198.2" y="126.9" class="st7" width="87.5" height="45.1"/>
	<text transform="matrix(1 0 0 1 201.1106 140.0893)" class="st8 st9 st10">Manchester</text>
	<text transform="matrix(1 0 0 1 219.1106 155.0893)" class="st8 st9 st10">United</text>
	<rect x="487.2" y="126.9" class="st7" width="87.5" height="45.1"/>
	<text transform="matrix(1 0 0 1 490.1606 140.0893)" class="st8 st9 st10">Manchester</text>
	<text transform="matrix(1 0 0 1 508.1606 155.0893)" class="st8 st9 st10">United</text>
	<rect x="583.6" y="126.9" class="st7" width="87.5" height="45.1"/>
	<text transform="matrix(1 0 0 1 586.5107 140.0893)" class="st8 st9 st10">Manchester</text>
	<text transform="matrix(1 0 0 1 604.5107 155.0893)" class="st8 st9 st10">United</text>
	<rect x="680" y="124.6" class="st7" width="87.5" height="45.1"/>
	<text transform="matrix(1 0 0 1 682.8607 137.8393)" class="st8 st9 st10">Manchester</text>
	<text transform="matrix(1 0 0 1 700.8607 152.8393)" class="st8 st9 st10">United</text>
	<rect x="53.1" y="212.4" class="st7" width="87.5" height="45.1"/>
	<text transform="matrix(1 0 0 1 56.0106 225.5953)" class="st8 st9 st10">Manchester</text>
	<text transform="matrix(1 0 0 1 74.0106 240.5953)" class="st8 st9 st10">United</text>
	<rect x="149.4" y="212.4" class="st7" width="87.5" height="45.1"/>
	<text transform="matrix(1 0 0 1 152.3606 225.5953)" class="st8 st9 st10">Manchester</text>
	<text transform="matrix(1 0 0 1 170.3606 240.5953)" class="st8 st9 st10">United</text>
	<rect x="245.8" y="212.4" class="st7" width="87.5" height="45.1"/>
	<text transform="matrix(1 0 0 1 248.7106 225.5953)" class="st8 st9 st10">Manchester</text>
	<text transform="matrix(1 0 0 1 266.7106 240.5953)" class="st8 st9 st10">United</text>
	<rect x="342.1" y="212.4" class="st7" width="87.5" height="45.1"/>
	<text transform="matrix(1 0 0 1 345.0606 225.5953)" class="st8 st9 st10">Manchester</text>
	<text transform="matrix(1 0 0 1 363.0606 240.5953)" class="st8 st9 st10">United</text>
	<rect x="438.5" y="212.4" class="st7" width="87.5" height="45.1"/>
	<text transform="matrix(1 0 0 1 441.4106 225.5953)" class="st8 st9 st10">Manchester</text>
	<text transform="matrix(1 0 0 1 459.4106 240.5953)" class="st8 st9 st10">United</text>
	<rect x="534.8" y="212.4" class="st7" width="87.5" height="45.1"/>
	<text transform="matrix(1 0 0 1 537.7606 225.5953)" class="st8 st9 st10">Manchester</text>
	<text transform="matrix(1 0 0 1 555.7606 240.5953)" class="st8 st9 st10">United</text>
	<rect x="631.2" y="212.4" class="st7" width="87.5" height="45.1"/>
	<text transform="matrix(1 0 0 1 634.1107 225.5953)" class="st8 st9 st10">Manchester</text>
	<text transform="matrix(1 0 0 1 652.1107 240.5953)" class="st8 st9 st10">United</text>
</g>
<g id="teams">
	<path class="st7" d="M411.4,155.1c-0.9,0-1.6,0.2-2.2,0.7c-0.6,0.5-0.9,1.2-1.1,2.1l6.6,0c-0.2-0.8-0.6-1.5-1.2-2
		S412.2,155.1,411.4,155.1z"/>
	<path class="st7" d="M434.2,158.9c-0.2-0.5-0.5-0.9-0.8-1.3c-0.3-0.4-0.7-0.6-1.2-0.8c-0.5-0.2-0.9-0.3-1.5-0.3
		c-0.5,0-1,0.1-1.5,0.3s-0.9,0.5-1.2,0.8c-0.3,0.4-0.6,0.8-0.8,1.2s-0.3,1-0.3,1.5c0,0.6,0.1,1.1,0.3,1.6c0.2,0.5,0.5,0.9,0.8,1.3
		c0.3,0.4,0.7,0.6,1.2,0.8c0.5,0.2,1,0.3,1.5,0.3c0.5,0,1-0.1,1.5-0.3c0.5-0.2,0.9-0.5,1.2-0.8c0.3-0.4,0.6-0.8,0.8-1.2
		c0.2-0.5,0.3-1,0.3-1.5S434.4,159.4,434.2,158.9z"/>
	<polygon class="st5" points="390.8,149.3 392,149.3 392,166.4 396.3,168.9 398.2,168.9 398.2,149.3 403.4,149.3 403.4,143.8 
		390.8,143.8 	"/>
	<path class="st5" d="M420.2,160.8c0-1.5-0.2-2.8-0.6-4c-0.4-1.2-1-2.2-1.8-3s-1.7-1.5-2.8-1.9c-1.1-0.4-2.4-0.7-3.7-0.7
		c-1.4,0-2.7,0.2-3.8,0.6c-1.1,0.4-2.1,1.1-2.9,1.9c-0.8,0.8-1.4,1.8-1.8,2.9c-0.4,1.1-0.6,2.4-0.6,3.9c0,1.4,0.2,2.6,0.7,3.7
		c0.4,1.1,1.1,2.1,1.9,2.9c0.8,0.8,1.8,1.4,3,1.9c1.2,0.4,2.4,0.7,3.8,0.7c4.5,0,7.4-2,8.5-5.9l-5.6,0c-0.6,1.1-1.6,1.6-2.8,1.6
		c-2.3,0-3.5-1.3-3.5-3.9l12.2,0V160.8z M408.1,157.9c0.1-0.9,0.5-1.6,1.1-2.1c0.6-0.5,1.3-0.7,2.2-0.7c0.9,0,1.6,0.3,2.2,0.8
		s1,1.2,1.2,2L408.1,157.9z"/>
	<path class="st5" d="M440.2,169l0-17.1l-5.8,0l0,1.7c-1.3-1.5-3-2.2-5.1-2.2c-1.2,0-2.3,0.2-3.3,0.7c-1,0.5-1.9,1.1-2.6,2
		c-0.7,0.8-1.3,1.8-1.7,2.9s-0.6,2.3-0.6,3.5c0,1.3,0.2,2.5,0.6,3.6c0.4,1.1,1,2.1,1.7,2.9c0.7,0.8,1.6,1.5,2.6,1.9
		c1,0.5,2.1,0.7,3.3,0.7c2.1,0,3.8-0.8,5-2.4l0,1.9L440.2,169z M434.2,161.9c-0.2,0.5-0.5,0.9-0.8,1.2c-0.3,0.4-0.7,0.6-1.2,0.8
		c-0.5,0.2-0.9,0.3-1.5,0.3c-0.5,0-1-0.1-1.5-0.3c-0.5-0.2-0.9-0.5-1.2-0.8c-0.3-0.4-0.6-0.8-0.8-1.3c-0.2-0.5-0.3-1-0.3-1.6
		c0-0.5,0.1-1,0.3-1.5s0.5-0.9,0.8-1.2c0.3-0.4,0.7-0.6,1.2-0.8s1-0.3,1.5-0.3c0.5,0,1,0.1,1.5,0.3c0.5,0.2,0.9,0.5,1.2,0.8
		c0.3,0.4,0.6,0.8,0.8,1.3c0.2,0.5,0.3,1,0.3,1.5S434.4,161.5,434.2,161.9z"/>
	<path class="st5" d="M470.1,169l0-11.1c0-1.1-0.1-2.1-0.4-2.9c-0.3-0.8-0.7-1.5-1.2-2c-0.5-0.5-1.1-0.9-1.8-1.1s-1.4-0.4-2.2-0.4
		c-2.4,0-4.3,1.1-5.6,3.2c-1.3-2.1-3.1-3.2-5.6-3.2c-2,0-3.7,0.8-5.3,2.4l0-2.1l-5.8,0l0,17.1l5.8,0l0-8.4c0-0.9,0.1-1.7,0.2-2.2
		c0.1-0.6,0.3-1,0.6-1.3c0.2-0.3,0.5-0.5,0.8-0.6c0.3-0.1,0.7-0.2,1-0.2c0.4,0,0.8,0.1,1.1,0.2s0.6,0.4,0.8,0.7
		c0.2,0.3,0.4,0.8,0.5,1.4c0.1,0.6,0.2,1.3,0.2,2.2l0,8.4l5.8,0l0-8.4c0-2.8,0.9-4.2,2.8-4.2c0.3,0,0.7,0.1,1,0.2s0.6,0.3,0.8,0.6
		s0.4,0.7,0.5,1.3c0.1,0.6,0.2,1.3,0.2,2.1l0,8.4L470.1,169z"/>
	<path class="st5" d="M474.5,152.9c-0.6,0.5-1.1,1.2-1.5,2c-0.3,0.8-0.5,1.6-0.5,2.6c0,1.3,0.4,2.3,1.1,3.1s2,1.3,3.8,1.7
		c0.4,0.1,0.8,0.2,1.1,0.3v-5.2c0,0-0.1-0.1-0.1-0.1c-0.1-0.1-0.1-0.3-0.1-0.5c0-0.2,0.1-0.4,0.2-0.6v-4.7c-0.6,0.1-1.1,0.2-1.6,0.3
		C475.9,152,475.1,152.4,474.5,152.9z"/>
	<path class="st5" d="M478.4,165.1c-0.1,0-0.3,0.1-0.4,0.1c-1.5,0-3-0.6-4.6-1.7l-2.1,4.3c0.7,0.4,1.4,0.8,2.1,1l5.1-3V165.1z"/>
</g>
<g id="the">
	<path class="st7" d="M380.7,126.3c-0.6-0.5-1.3-0.8-2.2-0.8c-0.9,0-1.6,0.2-2.2,0.7c-0.6,0.5-0.9,1.2-1.1,2.1l6.6,0
		C381.7,127.5,381.3,126.8,380.7,126.3z"/>
	<polygon class="st5" points="344.9,139.4 344.9,119.7 350,119.7 350,114.2 333.5,114.2 333.5,119.7 338.6,119.7 338.6,139.4 	"/>
	<path class="st5" d="M367.8,139.4l0-10.9c0-2-0.5-3.6-1.6-4.8c-1.1-1.2-2.6-1.8-4.7-1.8c-1.1,0-2,0.2-2.8,0.5c-0.8,0.3-1.6,1-2.4,2
		l0-12.8l-5.8,0l0,27.7l5.8,0l0-9.1c0-1.1,0.3-2,0.8-2.6c0.5-0.6,1.3-0.9,2.3-0.9c0.7,0,1.3,0.2,1.9,0.7c0.3,0.3,0.5,0.7,0.6,1.2
		c0.1,0.5,0.2,1.2,0.2,2.1l0,8.6L367.8,139.4z"/>
	<path class="st5" d="M382,122.2c-1.1-0.4-2.3-0.6-3.6-0.6c-1.4,0-2.7,0.2-3.8,0.6s-2.1,1-2.9,1.9c-0.8,0.8-1.4,1.8-1.8,2.9
		c-0.4,1.1-0.6,2.4-0.6,3.9c0,1.4,0.2,2.6,0.7,3.7c0.4,1.1,1.1,2.1,1.9,2.9c0.8,0.8,1.8,1.4,3,1.9c1.2,0.4,2.4,0.7,3.8,0.7
		c1.3,0,2.4-0.2,3.4-0.5v-5.4l-0.5,0c-0.6,1.1-1.6,1.6-2.8,1.6c-2.3,0-3.5-1.3-3.5-3.9l6.9,0V122.2z M376.4,126.3
		c0.6-0.5,1.3-0.7,2.2-0.7c0.9,0,1.6,0.3,2.2,0.8c0.6,0.5,1,1.2,1.2,2l-6.6,0C375.5,127.4,375.8,126.8,376.4,126.3z"/>
</g>
</svg>
